<?xml version="1.0" encoding="utf-8"?>
<!-- Generator: Adobe Illustrator 16.0.3, SVG Export Plug-In . SVG Version: 6.00 Build 0)  -->
<!DOCTYPE svg PUBLIC "-//W3C//DTD SVG 1.1//EN" "http://www.w3.org/Graphics/SVG/1.1/DTD/svg11.dtd">
<svg version="1.1" id="圖層_1" xmlns="http://www.w3.org/2000/svg" xmlns:xlink="http://www.w3.org/1999/xlink" x="0px" y="0px"
	 width="14px" height="14px" viewBox="0 0 14 14" enable-background="new 0 0 14 14" xml:space="preserve">
<g>
	<g>
		<linearGradient id="SVGID_1_" gradientUnits="userSpaceOnUse" x1="7" y1="13.999" x2="7" y2="9.765625e-004">
			<stop  offset="0.3228" style="stop-color:#449728"/>
			<stop  offset="1" style="stop-color:#45B035"/>
		</linearGradient>
		<path fill="url(#SVGID_1_)" d="M14,12.62c0,0.763-0.582,1.379-1.299,1.379H1.298C0.58,13.999,0,13.383,0,12.62V1.381
			c0-0.763,0.58-1.38,1.298-1.38h11.403c0.717,0,1.299,0.617,1.299,1.38V12.62z"/>
		<path fill="#FFFFFF" d="M12.739,6.311c0,1.023-0.417,1.969-1.12,2.733c-0.218,0.235-1.508,1.405-1.98,1.819
			c-1.02,0.893-2.152,1.746-2.407,1.548c-0.257-0.2-0.051-0.986,0.117-1.498c-0.117,0-0.229,0.006-0.347,0.006
			c-3.164,0-5.742-2.068-5.742-4.608c0-2.542,2.578-4.609,5.742-4.609S12.739,3.769,12.739,6.311z"/>
		<g>
			<linearGradient id="SVGID_2_" gradientUnits="userSpaceOnUse" x1="2.3818" y1="6.2354" x2="4.9209" y2="6.2354">
				<stop  offset="0.3228" style="stop-color:#449728"/>
				<stop  offset="1" style="stop-color:#45B035"/>
			</linearGradient>
			<path fill="url(#SVGID_2_)" d="M2.382,8.137V4.334h0.729V7.49h1.81v0.646H2.382z"/>
			<linearGradient id="SVGID_3_" gradientUnits="userSpaceOnUse" x1="5.3242" y1="6.2197" x2="6.0156" y2="6.2197">
				<stop  offset="0.3228" style="stop-color:#449728"/>
				<stop  offset="1" style="stop-color:#45B035"/>
			</linearGradient>
			<path fill="url(#SVGID_3_)" d="M5.324,4.981V4.303h0.691v0.679H5.324z M5.324,8.137V5.359h0.691v2.777H5.324z"/>
			<linearGradient id="SVGID_4_" gradientUnits="userSpaceOnUse" x1="6.6074" y1="6.7168" x2="8.9893" y2="6.7168">
				<stop  offset="0.3228" style="stop-color:#449728"/>
				<stop  offset="1" style="stop-color:#45B035"/>
			</linearGradient>
			<path fill="url(#SVGID_4_)" d="M8.989,8.137H8.298V6.718c0-0.3-0.014-0.492-0.044-0.581S8.178,5.98,8.11,5.932
				C8.044,5.883,7.963,5.858,7.871,5.858c-0.121,0-0.229,0.035-0.323,0.105c-0.095,0.069-0.16,0.162-0.196,0.275
				C7.316,6.354,7.299,6.568,7.299,6.878v1.259H6.607V5.359H7.25v0.407c0.228-0.313,0.516-0.471,0.861-0.471
				c0.152,0,0.291,0.03,0.418,0.088s0.223,0.134,0.287,0.223c0.064,0.093,0.109,0.195,0.135,0.31
				c0.025,0.115,0.038,0.28,0.038,0.494V8.137z"/>
			<linearGradient id="SVGID_5_" gradientUnits="userSpaceOnUse" x1="9.3789" y1="6.7471" x2="11.8193" y2="6.7471">
				<stop  offset="0.3228" style="stop-color:#449728"/>
				<stop  offset="1" style="stop-color:#45B035"/>
			</linearGradient>
			<path fill="url(#SVGID_5_)" d="M11.093,7.253l0.688,0.122c-0.088,0.269-0.228,0.473-0.419,0.613s-0.431,0.21-0.718,0.21
				c-0.453,0-0.79-0.157-1.008-0.474C9.465,7.473,9.379,7.153,9.379,6.769c0-0.46,0.112-0.82,0.338-1.081
				c0.227-0.261,0.514-0.392,0.859-0.392c0.389,0,0.695,0.137,0.92,0.409c0.225,0.273,0.332,0.69,0.323,1.255h-1.733
				c0.006,0.217,0.061,0.387,0.168,0.508c0.107,0.122,0.24,0.183,0.398,0.183c0.107,0,0.199-0.032,0.272-0.095
				C10.999,7.493,11.055,7.392,11.093,7.253z M11.132,6.51c-0.005-0.213-0.057-0.375-0.155-0.485
				c-0.098-0.111-0.217-0.166-0.359-0.166c-0.15,0-0.275,0.059-0.373,0.175c-0.099,0.118-0.146,0.275-0.146,0.477H11.132z"/>
		</g>
	</g>
</g>
</svg>
