<?xml version="1.0" encoding="utf-8"?>
<!-- Generator: Adobe Illustrator 16.0.3, SVG Export Plug-In . SVG Version: 6.00 Build 0)  -->
<!DOCTYPE svg PUBLIC "-//W3C//DTD SVG 1.1//EN" "http://www.w3.org/Graphics/SVG/1.1/DTD/svg11.dtd">
<svg version="1.1" id="圖層_1" xmlns="http://www.w3.org/2000/svg" xmlns:xlink="http://www.w3.org/1999/xlink" x="0px" y="0px"
	 width="14px" height="14px" viewBox="0 0 14 14" enable-background="new 0 0 14 14" xml:space="preserve">
<g>
	<g>
		<path fill="#20AEE5" d="M14.021,12.619c0,0.763-0.583,1.38-1.299,1.38H1.319c-0.717,0-1.298-0.617-1.298-1.38V1.38
			C0.021,0.617,0.603,0,1.319,0h11.403c0.716,0,1.299,0.617,1.299,1.38V12.619z"/>
		<path fill="#FFFFFF" d="M1.576,10.715c1.262,0.099,2.536-0.333,3.301-0.954C3.7,9.696,3.027,8.951,2.785,8.226
			c0.483,0.052,1-0.047,1-0.047C3.027,7.978,2.021,7.382,2.001,5.938C2.485,6.187,2.824,6.18,3.015,6.212
			C2.269,5.67,1.603,4.637,2.321,3.238c1.248,1.497,3.124,2.288,4.627,2.327C6.583,4.284,7.642,2.8,9.053,2.833
			c1.341,0.031,1.703,0.692,1.703,0.692c0.329-0.024,1.147-0.318,1.407-0.534c-0.182,0.545-0.49,0.893-0.951,1.231
			c0.543-0.035,1.138-0.29,1.254-0.354c-0.367,0.578-0.906,1-1.102,1.157c0.055,0.683-0.068,2.048-0.835,3.474
			c-0.888,1.653-2.854,3.131-5.059,3.17C4.705,11.684,3.282,11.794,1.576,10.715z"/>
	</g>
</g>
</svg>
