<?xml version="1.0" encoding="utf-8"?>
<!-- Generator: Adobe Illustrator 16.0.3, SVG Export Plug-In . SVG Version: 6.00 Build 0)  -->
<!DOCTYPE svg PUBLIC "-//W3C//DTD SVG 1.1//EN" "http://www.w3.org/Graphics/SVG/1.1/DTD/svg11.dtd">
<svg version="1.1" id="圖層_1" xmlns="http://www.w3.org/2000/svg" xmlns:xlink="http://www.w3.org/1999/xlink" x="0px" y="0px"
	 width="14px" height="14px" viewBox="0 0 14 14" enable-background="new 0 0 14 14" xml:space="preserve">
<g>
	<g>
		<path fill="#EA5504" d="M14,12.619c0,0.763-0.583,1.38-1.299,1.38H1.298C0.581,13.999,0,13.382,0,12.619V1.38
			C0,0.617,0.581,0,1.298,0h11.403C13.417,0,14,0.617,14,1.38V12.619z"/>
		<path fill-rule="evenodd" clip-rule="evenodd" fill="#FFFFFF" d="M11.528,5.852c0,0-0.813,0-1.062,0
			c-0.176,0-0.307-0.104-0.312-0.282c-0.003-0.135,0-0.468,0-0.468c0-1.63-1.321-2.951-2.951-2.951H5.106
			c-1.631,0-2.952,1.321-2.952,2.951v3.796c0,1.63,1.321,2.951,2.952,2.951h3.787c1.631,0,2.952-1.321,2.952-2.951V6.17
			C11.846,5.994,11.703,5.852,11.528,5.852z M4.84,4.809c0.105-0.105,0.253-0.171,0.413-0.171h1.726
			c0.321,0,0.582,0.261,0.582,0.583S7.3,5.805,6.979,5.805H5.253c-0.322,0-0.584-0.262-0.584-0.584
			C4.669,5.06,4.734,4.914,4.84,4.809z M8.731,9.346H5.253c-0.322,0-0.584-0.261-0.584-0.584c0-0.16,0.065-0.307,0.171-0.413
			c0.105-0.104,0.253-0.17,0.413-0.17h3.479c0.321,0,0.583,0.262,0.583,0.583C9.314,9.085,9.053,9.346,8.731,9.346z"/>
	</g>
</g>
</svg>
