<?xml version="1.0" encoding="utf-8"?>
<!-- Generator: Adobe Illustrator 16.0.3, SVG Export Plug-In . SVG Version: 6.00 Build 0)  -->
<!DOCTYPE svg PUBLIC "-//W3C//DTD SVG 1.1//EN" "http://www.w3.org/Graphics/SVG/1.1/DTD/svg11.dtd">
<svg version="1.1" id="圖層_1" xmlns="http://www.w3.org/2000/svg" xmlns:xlink="http://www.w3.org/1999/xlink" x="0px" y="0px"
	 width="14px" height="14px" viewBox="0 0 14 14" enable-background="new 0 0 14 14" xml:space="preserve">
<g>
	<g>
		<path fill-rule="evenodd" clip-rule="evenodd" fill="#195C9C" d="M2.463,4.848H0.699C0.754,4.614,0.831,4.32,0.923,4.001
			c0.391-0.043,0.936-0.111,1.54-0.218V4.848z"/>
		<path fill-rule="evenodd" clip-rule="evenodd" fill="#195C9C" d="M2.463,7.125H0.261c0.059-0.387,0.123-0.769,0.193-1.136h2.009
			V7.125z"/>
		<path fill-rule="evenodd" clip-rule="evenodd" fill="#195C9C" d="M1.371,10.196l0.104,0.911c-0.656-0.225-1.513-0.661-1.447-1.809
			c0.018-0.336,0.045-0.682,0.085-1.032h2.353c0,0.04,0.004,0.083,0.004,0.124C2.503,9.667,2.423,10.09,1.371,10.196z"/>
		<path fill-rule="evenodd" clip-rule="evenodd" fill="#195C9C" d="M14.012,3.236c-0.076-1.007-0.436-1.078-1.073-1.389
			c-0.641-0.313-3.374-1.032-4.424-1.271C7.466,0.338,4.398-0.022,3.479,0.002c-0.92,0.022-1.199,0.144-1.61,1.101
			C1.773,1.33,1.53,2.037,1.288,2.811c0.356-0.049,0.761-0.112,1.175-0.187V1.223h1.215v1.143C4.35,2.198,4.953,2,5.319,1.775
			l0.665,0.958c-0.555,0.34-1.42,0.605-2.307,0.812v1.303h2.052v1.142H3.678v1.136h2.254v1.142H3.685
			c0,0.031,0.003,0.065,0.003,0.097c0.024,1.011,0.063,2.506-1.73,2.894c0.663,0.188,1.918,0.472,2.749,0.584
			c0.026,0.406-0.537,1.51-0.844,1.701s-0.384,0.6,0.181,0.407c0.561-0.192,1.941-1.079,2.249-1.749c0,0,3.015,0.406,4.241,0.432
			c1.228,0.023,1.381-0.528,1.61-1.007c0.229-0.479,1.074-3.189,1.355-4.268C13.781,6.279,14.088,4.243,14.012,3.236z M10.853,8.508
			C10.767,9.002,10.328,9.823,8.39,9.75L8.362,8.646c0.684,0.02,1.257-0.134,1.291-0.328C9.929,6.76,8.527,5.399,8.515,5.385
			L8.266,5.178L9.27,2.394H7.665v8.774H6.451V1.821l0.013-0.569h3.661l0.574,0.76l-1.059,2.85
			C10.139,5.439,11.147,6.852,10.853,8.508z"/>
	</g>
</g>
</svg>
