<?xml version="1.0" encoding="utf-8"?>
<!-- Generator: Adobe Illustrator 16.0.3, SVG Export Plug-In . SVG Version: 6.00 Build 0)  -->
<!DOCTYPE svg PUBLIC "-//W3C//DTD SVG 1.1//EN" "http://www.w3.org/Graphics/SVG/1.1/DTD/svg11.dtd">
<svg version="1.1" id="圖層_1" xmlns="http://www.w3.org/2000/svg" xmlns:xlink="http://www.w3.org/1999/xlink" x="0px" y="0px"
	 width="14px" height="14px" viewBox="0 0 14 14" enable-background="new 0 0 14 14" xml:space="preserve">
<g>
	<g>
		
			<radialGradient id="SVGID_1_" cx="18.3281" cy="13.2529" r="19.6846" gradientTransform="matrix(0.9207 0 0 0.7753 -13.7172 3.8371)" gradientUnits="userSpaceOnUse">
			<stop  offset="0" style="stop-color:#FFF352"/>
			<stop  offset="0.164" style="stop-color:#F8B500"/>
			<stop  offset="0.3439" style="stop-color:#E9473C"/>
			<stop  offset="0.5556" style="stop-color:#E60040"/>
			<stop  offset="0.6991" style="stop-color:#950864"/>
			<stop  offset="0.8495" style="stop-color:#5F0671"/>
			<stop  offset="1" style="stop-color:#36257A"/>
		</radialGradient>
		<path fill="url(#SVGID_1_)" d="M13.999,12.62c0,0.762-0.581,1.379-1.299,1.379H1.298C0.581,13.999,0,13.382,0,12.62V1.38
			C0,0.618,0.581,0,1.298,0H12.7c0.718,0,1.299,0.618,1.299,1.38V12.62z"/>
		<g>
			<path fill="#FFFFFF" d="M10.925,12.533H3.073c-0.866,0-1.571-0.748-1.571-1.67V3.136c0-0.921,0.705-1.67,1.571-1.67h7.852
				c0.867,0,1.572,0.749,1.572,1.67v7.728C12.497,11.785,11.792,12.533,10.925,12.533z M3.073,2.257
				c-0.457,0-0.828,0.394-0.828,0.879v7.728c0,0.485,0.371,0.88,0.828,0.88h7.852c0.457,0,0.828-0.395,0.828-0.88V3.136
				c0-0.485-0.371-0.879-0.828-0.879H3.073z"/>
			<path fill="#FFFFFF" d="M7,9.897c-1.503,0-2.727-1.3-2.727-2.897S5.497,4.102,7,4.102S9.726,5.402,9.726,7S8.503,9.897,7,9.897z
				 M7,4.893C5.905,4.893,5.017,5.838,5.017,7S5.905,9.107,7,9.107c1.093,0,1.982-0.945,1.982-2.107S8.093,4.893,7,4.893z"/>
			<ellipse fill="#FFFFFF" cx="10.096" cy="4.033" rx="0.719" ry="0.764"/>
		</g>
	</g>
</g>
</svg>
