<?xml version="1.0" encoding="utf-8"?>
<!-- Generator: Adobe Illustrator 16.0.3, SVG Export Plug-In . SVG Version: 6.00 Build 0)  -->
<!DOCTYPE svg PUBLIC "-//W3C//DTD SVG 1.1//EN" "http://www.w3.org/Graphics/SVG/1.1/DTD/svg11.dtd">
<svg version="1.1" id="圖層_1" xmlns="http://www.w3.org/2000/svg" xmlns:xlink="http://www.w3.org/1999/xlink" x="0px" y="0px"
	 width="14px" height="14px" viewBox="0 0 14 14" enable-background="new 0 0 14 14" xml:space="preserve">
<g>
	<g>
		<path fill="#005BAC" d="M13.999,12.62c0,0.763-0.581,1.379-1.299,1.379H1.298C0.581,13.999,0,13.383,0,12.62V1.381
			c0-0.763,0.581-1.38,1.298-1.38H12.7c0.718,0,1.299,0.617,1.299,1.38V12.62z"/>
		<g>
			<path fill="#FFFFFF" d="M4.729,4.514h1.112V3.907c0-0.677,0.068-1.182,0.204-1.517C6.181,2.058,6.43,1.786,6.794,1.576
				c0.363-0.21,0.824-0.315,1.38-0.315c0.571,0,1.129,0.092,1.676,0.273L9.579,3.02c-0.319-0.081-0.625-0.12-0.921-0.12
				c-0.29,0-0.497,0.071-0.624,0.216c-0.126,0.144-0.188,0.421-0.188,0.83v0.568h1.497v1.675H7.846v6.375H5.841V6.188H4.729V4.514z"
				/>
		</g>
	</g>
</g>
</svg>
