<?xml version="1.0" encoding="utf-8"?>
<!-- Generator: Adobe Illustrator 16.0.3, SVG Export Plug-In . SVG Version: 6.00 Build 0)  -->
<!DOCTYPE svg PUBLIC "-//W3C//DTD SVG 1.1//EN" "http://www.w3.org/Graphics/SVG/1.1/DTD/svg11.dtd">
<svg version="1.1" id="圖層_1" xmlns="http://www.w3.org/2000/svg" xmlns:xlink="http://www.w3.org/1999/xlink" x="0px" y="0px"
	 width="250px" height="80px" viewBox="0 0 250 80" enable-background="new 0 0 250 80" xml:space="preserve">
<g>
	<radialGradient id="SVGID_1_" cx="225.6426" cy="62.5186" r="80.1479" gradientUnits="userSpaceOnUse">
		<stop  offset="0" style="stop-color:#4DA635"/>
		<stop  offset="1" style="stop-color:#6FBA2C"/>
	</radialGradient>
	<path fill="url(#SVGID_1_)" d="M242.021,71.295c0,4.09-3.316,7.406-7.408,7.406h-61.146c-4.092,0-7.408-3.316-7.408-7.406V10.163
		c0-4.091,3.316-7.407,7.408-7.407h61.146c4.092,0,7.408,3.316,7.408,7.407V71.295z"/>
	<g>
		<g>
			<path fill="#4DA635" d="M237.806,40.464c0,8.911-5.555,16.792-14.059,21.567c-1.662,0.936-7.652,3.824-9.408,4.873
				c-3.764,2.248-8.588,5.158-9.783,6.002c-2.024,1.432-3.795,0.406-3.057-1.596c0.41-1.109,0.906-2.027,1.385-3.607
				c0.238-0.787-0.354-0.902-0.668-0.918c-17.189-0.986-30.751-12.395-30.751-26.321c0-14.577,14.852-26.392,33.171-26.392
				C222.954,14.072,237.806,25.887,237.806,40.464z"/>
		</g>
		<g>
			<path fill="#FFFFFF" d="M237.267,39.224c0,8.858-5.521,16.69-13.973,21.436c-1.652,0.932-7.605,3.801-9.352,4.844
				c-3.74,2.234-8.535,5.127-9.724,5.965c-2.012,1.424-3.771,0.402-3.037-1.586c0.407-1.102,0.899-2.014,1.376-3.586
				c0.236-0.781-0.352-0.895-0.664-0.912c-17.085-0.98-30.564-12.318-30.564-26.161c0-14.488,14.762-26.23,32.969-26.23
				S237.267,24.736,237.267,39.224z"/>
		</g>
		<g>
			<radialGradient id="SVGID_2_" cx="211.8643" cy="50.6025" r="34.23" gradientUnits="userSpaceOnUse">
				<stop  offset="0" style="stop-color:#AACE36"/>
				<stop  offset="0.821" style="stop-color:#6FBA2C"/>
			</radialGradient>
			<path fill="url(#SVGID_2_)" d="M199.897,27.283h-17.431c-2.15,0-3.899,1.75-3.899,3.899v9.249c0,2.151,1.749,3.899,3.899,3.899
				h16.556v3.408h-15.846c-0.35-0.887-1.213-1.514-2.223-1.514c-1.318,0-2.387,1.068-2.387,2.389c0,2.148,1.749,3.898,3.899,3.898
				h17.431c2.15,0,3.899-1.75,3.899-3.898v-8.183v-4.534v-4.715C203.797,29.032,202.048,27.283,199.897,27.283z M183.342,39.557
				v-7.499h15.681v3.839v3.66H183.342z"/>
			<radialGradient id="SVGID_3_" cx="211.8633" cy="50.6025" r="34.2323" gradientUnits="userSpaceOnUse">
				<stop  offset="0" style="stop-color:#AACE36"/>
				<stop  offset="0.821" style="stop-color:#6FBA2C"/>
			</radialGradient>
			<path fill="url(#SVGID_3_)" d="M227.173,27.283h-17.432c-2.15,0-3.9,1.75-3.9,3.899v3.835c0,1.319,1.07,2.389,2.389,2.389
				s2.387-1.069,2.387-2.389v-2.96h15.08l-7.422,16.991c-0.527,1.209,0.023,2.615,1.232,3.145c0.311,0.135,0.635,0.199,0.953,0.199
				c0.922,0,1.799-0.535,2.189-1.432l8.223-18.822c0.131-0.301,0.199-0.627,0.199-0.957
				C231.071,29.032,229.321,27.283,227.173,27.283z"/>
		</g>
	</g>
</g>
<g>
	<path fill="#72AF2D" d="M45.223,62.308H25.22c-0.394,0-0.715-0.32-0.715-0.715V15.627c0-3.131-2.539-5.669-5.669-5.669
		s-5.669,2.539-5.669,5.669v45.965c0,6.646,5.407,12.053,12.054,12.053h20.003c3.131,0,5.669-2.537,5.669-5.668
		S48.354,62.308,45.223,62.308z"/>
	<path fill="#72AF2D" d="M153.173,62.308h-20.754c-0.527,0-0.956-0.428-0.956-0.953v-5.572V43.179h17.798
		c3.131,0,5.669-2.54,5.669-5.67s-2.538-5.669-5.669-5.669h-17.798v-3.434V22.99v-1.057c0-0.526,0.429-0.954,0.956-0.954h20.754
		c3.131,0,5.669-2.539,5.669-5.669s-2.538-5.669-5.669-5.669h-20.754c-6.781,0-12.296,5.515-12.296,12.293v1.057v5.415v27.377v5.572
		c0,6.777,5.515,12.291,12.296,12.291h20.754c3.131,0,5.669-2.537,5.669-5.668S156.304,62.308,153.173,62.308z"/>
	<path fill="#72AF2D" d="M60.336,9.641c-3.131,0-5.669,2.539-5.669,5.669v52.839c0,3.131,2.539,5.67,5.669,5.67
		s5.669-2.539,5.669-5.67V15.311C66.006,12.18,63.467,9.641,60.336,9.641z"/>
	<path fill="#72AF2D" d="M77.8,9.871c4.357-0.888,8.639,1.695,10.65,6.427c0.772,1.816,4.254,10.283,8.287,20.086
		c2.357,5.73,4.879,11.863,6.923,16.818V15.371c0-3.131,2.539-5.669,5.669-5.669s5.669,2.539,5.669,5.669v48.103
		c0,5.895-3.624,9.273-7.216,10.004c-0.572,0.117-1.143,0.174-1.708,0.174c-3.736,0-7.196-2.488-8.944-6.598
		c-1.256-2.957-6.149-14.852-10.881-26.357c-1.533-3.727-3.032-7.372-4.329-10.52v37.8c0,3.131-2.539,5.668-5.669,5.668
		s-5.669-2.537-5.669-5.668V19.875C70.583,13.979,74.208,10.602,77.8,9.871z"/>
</g>
</svg>
