<?xml version="1.0" encoding="utf-8"?>
<!-- Generator: Adobe Illustrator 16.0.3, SVG Export Plug-In . SVG Version: 6.00 Build 0)  -->
<!DOCTYPE svg PUBLIC "-//W3C//DTD SVG 1.1//EN" "http://www.w3.org/Graphics/SVG/1.1/DTD/svg11.dtd">
<svg version="1.1" id="圖層_1" xmlns="http://www.w3.org/2000/svg" xmlns:xlink="http://www.w3.org/1999/xlink" x="0px" y="0px"
	 width="252px" height="80px" viewBox="0 0 252 80" enable-background="new 0 0 252 80" xml:space="preserve">
<g>
	<g>
		<path fill="#002E2A" d="M117.213,59.305c-0.047-0.047-0.097-0.092-0.149-0.135c-0.246-0.209-0.521-0.381-0.811-0.508
			c-0.061-0.027-0.128-0.05-0.195-0.072c1.873-0.303,4.048-1.466,5.37-4.878c0.878-2.233,0.114-4.251-1.944-5.138
			c-2.133-0.926-3.958-1.975-5.465-3.136h3.618c2.387,0,5.603-0.956,7.372-5.513l3.176-8.2c0.148-0.383,0.273-0.764,0.369-1.126
			c0.078-0.292,0.12-0.554,0.158-0.803c0.011-0.055,0.035-0.203,0.042-0.258c0.042-0.359,0.045-0.709,0.013-1.065
			c-0.02-0.225-0.057-0.445-0.112-0.66c-0.019-0.126-0.049-0.251-0.093-0.375c-0.054-0.154-0.12-0.282-0.177-0.378
			c-0.092-0.187-0.204-0.369-0.338-0.551c-0.015-0.021-0.058-0.078-0.064-0.086c1.655-0.294,3.538-1.37,4.721-4.4
			c0.114-0.293,0.2-0.565,0.271-0.823c0.02-0.073,0.037-0.143,0.062-0.256c0.049-0.209,0.084-0.41,0.111-0.623
			c0.012-0.093,0.022-0.187,0.027-0.264c0.015-0.229,0.011-0.444-0.007-0.648c-0.004-0.085-0.014-0.193-0.025-0.265
			c-0.047-0.299-0.138-0.594-0.264-0.87c-0.056-0.124-0.122-0.239-0.202-0.365c-0.107-0.172-0.23-0.334-0.371-0.484
			c-0.1-0.106-0.205-0.208-0.327-0.306c-0.153-0.123-0.325-0.232-0.458-0.302c-0.115-0.07-0.234-0.134-0.368-0.189
			c0,0-0.107-0.042-0.162-0.059c-0.25-0.092-0.495-0.157-0.742-0.198c-0.29-0.049-0.602-0.074-0.929-0.074h-9.422
			c-0.006-0.105-0.019-0.201-0.03-0.253c-0.028-0.218-0.077-0.427-0.138-0.608c-0.05-0.151-0.109-0.297-0.185-0.446
			c-0.081-0.156-0.179-0.303-0.273-0.427c-0.164-0.221-0.36-0.423-0.584-0.601c-0.079-0.063-0.16-0.124-0.23-0.169
			c-0.151-0.101-0.31-0.195-0.477-0.272c-0.183-0.086-0.381-0.165-0.604-0.233c-0.103-0.031-0.214-0.057-0.369-0.091
			c-0.154-0.034-0.317-0.064-0.501-0.091c-0.093-0.013-0.312-0.038-0.325-0.039c-0.254-0.024-0.521-0.04-0.816-0.04
			c-3.528,0-5.073,1.894-5.729,3.27H98.927c-1.224,0-3.26,0.366-4.758,2.48c-0.157-0.182-0.304-0.36-0.484-0.548
			c-0.016-0.017-0.031-0.034-0.045-0.049c-0.271-0.281-0.561-0.569-0.907-0.888c-2.607-2.344-4.25-3.3-5.669-3.3
			c-1.379,0-2.753,0.576-4.033,1.67c-1.257,1.005-2.122,2.098-2.57,3.252c-0.599,1.545-0.215,3.119,1.052,4.319
			c0.024,0.023,0.05,0.046,0.076,0.068c0.302,0.258,0.59,0.515,0.88,0.772c-1.353,0.011-2.696,0.558-3.944,1.593
			c-1.257,0.973-2.13,2.074-2.593,3.27c-0.138,0.354-0.233,0.702-0.284,1.028c-0.031,0.196-0.036,0.372-0.029,0.593
			c0,0.015-0.001,0.072-0.001,0.086c-0.005,0.146,0.003,0.346,0.024,0.476c0.051,0.318,0.155,0.568,0.229,0.731
			c0.057,0.154,0.141,0.334,0.216,0.454c0.165,0.262,0.35,0.444,0.482,0.566c0.072,0.08,0.167,0.176,0.29,0.272
			c1.453,1.191,2.732,2.389,3.828,3.578h-4.099c-2.716,0-4.815,1.558-5.911,4.386c-0.117,0.301-0.206,0.581-0.282,0.851
			c-0.001,0.005-0.048,0.179-0.067,0.257c-0.058,0.24-0.101,0.468-0.127,0.683c0,0.004-0.001,0.009-0.001,0.013
			c-0.017,0.135-0.025,0.263-0.032,0.403c-0.008,0.191-0.007,0.375,0.005,0.521c0.012,0.171,0.035,0.334,0.071,0.516
			c0.021,0.1,0.049,0.196,0.078,0.288c0.115,0.383,0.291,0.734,0.493,1.001c0.007,0.01,0.096,0.129,0.126,0.166
			c0.161,0.192,0.341,0.364,0.526,0.502c0.308,0.235,0.669,0.42,1.063,0.548c0.117,0.039,0.235,0.075,0.397,0.113
			c0.115,0.025,0.233,0.049,0.344,0.064c0.26,0.04,0.535,0.066,0.843,0.066h0.992l-2.332,6.014
			c-0.508,1.311-2.275,3.454-7.832,6.237c-1.338,0.693-2.296,1.77-2.848,3.196c-0.12,0.31-0.214,0.633-0.276,0.944
			c-0.04,0.188-0.06,0.372-0.079,0.6c-0.003,0.025-0.024,0.288-0.026,0.345c-0.006,0.268,0.012,0.544,0.056,0.846
			c0.002,0.02,0.014,0.097,0.018,0.117c0.033,0.199,0.076,0.395,0.12,0.54c0.083,0.308,0.182,0.58,0.304,0.832
			c0.019,0.039,0.039,0.076,0.06,0.114c0.801,1.415,2.171,2.194,3.856,2.194c1.33,0,3.047-0.776,5.743-2.593
			c0.564-0.38,1.1-0.752,1.607-1.115c0.403-0.288,0.776-0.566,1.146-0.843l0.3-0.222c0.341-0.26,0.672-0.519,0.991-0.776
			c0.161,0.168,0.329,0.333,0.5,0.495c0.1,0.095,0.2,0.189,0.308,0.287c0.187,0.167,0.38,0.33,0.581,0.491
			c0.141,0.113,0.287,0.223,0.433,0.332c0.191,0.142,0.387,0.279,0.589,0.412c0.184,0.121,0.376,0.236,0.586,0.359
			c0.188,0.11,0.375,0.219,0.576,0.325c0.229,0.119,0.473,0.229,0.716,0.338l0.116,0.053c0.153,0.07,0.306,0.139,0.461,0.2
			c0.288,0.113,0.593,0.211,0.916,0.313l0.122,0.041c0.128,0.043,0.257,0.086,0.396,0.124c0.532,0.146,1.042,0.257,1.543,0.338
			c4.106,0.705,11.697,1.047,23.208,1.047c6.518,0,7.74-0.58,8.539-1.26c0.847-0.757,1.54-1.85,2.096-3.287
			c0.141-0.334,0.253-0.646,0.342-0.949c0.011-0.037,0.023-0.087,0.034-0.134c0.078-0.287,0.134-0.555,0.153-0.723
			c0.009-0.054,0.016-0.109,0.021-0.164c0.079-0.746-0.029-1.424-0.328-2.03C117.651,59.796,117.425,59.496,117.213,59.305z
			 M87.35,43.455c0.156,0.271,0.329,0.507,0.528,0.712c0.084,0.086,0.174,0.164,0.27,0.232c0.114,0.093,0.221,0.168,0.312,0.23
			c0.102,0.07,0.206,0.137,0.337,0.21c0.182,0.099,0.378,0.188,0.562,0.254c0.168,0.063,0.354,0.116,0.612,0.179
			c0.129,0.032,0.26,0.062,0.393,0.082c0.358,0.056,0.708,0.083,1.069,0.083h0.652c-1.957,0.924-4.163,1.859-6.59,2.802
			L87.35,43.455z M91.918,55.972c1.006-0.465,1.934-0.916,2.786-1.354l-0.475,1.225c-0.13,0.334-0.227,0.659-0.296,1.003
			c-0.01,0.053-0.022,0.134-0.03,0.203c-0.049,0.313-0.064,0.606-0.043,0.939c0.005,0.061,0.003,0.052,0.014,0.111
			c0.009,0.082,0.031,0.16,0.045,0.24c-2.3-0.056-4.32-0.276-6.041-0.664C88.93,57.289,90.241,56.746,91.918,55.972z
			 M104.332,57.296l1.458-3.752c0.817,0.748,1.795,1.514,2.941,2.308c1.759,1.227,3.178,2.026,4.383,2.453h-6.101
			c-1.128,0.008-2.186,0.014-3.196,0.021C104.012,58.004,104.189,57.666,104.332,57.296z"/>
		<path fill="#002E2A" d="M172.47,57.558c-0.737-0.146-1.444-0.304-2.136-0.468c-0.221-0.053-0.436-0.107-0.657-0.163
			c-0.468-0.117-0.923-0.24-1.367-0.365l-0.678-0.193c-0.583-0.174-1.15-0.355-1.697-0.547l-0.895-0.341
			c-0.258-0.097-0.516-0.194-0.762-0.297l-0.411-0.17c-0.476-0.206-0.933-0.419-1.37-0.641l-0.115-0.061l-0.2-0.105
			c0,0-0.453-0.255-0.453-0.255c-0.221-0.121-0.442-0.241-0.649-0.367l-0.204-0.121c-0.294-0.184-0.575-0.374-0.846-0.57
			c2.601-2.019,5.539-4.751,8.779-8.162c0.347,0.884,0.733,1.892,1.173,3.06c1.115,2.708,3.03,3.112,4.073,3.112
			c1.353,0,2.77-0.463,4.261-1.408c1.457-0.981,2.46-2.161,2.983-3.511c0.548-1.423,0.242-3.655-2.971-10.366
			c-1.234-2.604-2.141-4.428-2.824-5.722h7.448c2.924,0,5.196-1.71,6.395-4.813c0.128-0.331,0.226-0.637,0.31-0.941l0.071-0.276
			c0.062-0.26,0.107-0.507,0.133-0.729c0.02-0.154,0.029-0.298,0.036-0.459c0.006-0.196,0.004-0.388-0.009-0.551
			c-0.015-0.184-0.041-0.36-0.082-0.553c-0.022-0.098-0.049-0.189-0.082-0.29c-0.12-0.391-0.3-0.748-0.547-1.076
			c-0.034-0.046-0.077-0.103-0.111-0.143c-0.171-0.202-0.364-0.382-0.561-0.526c-0.161-0.121-0.331-0.233-0.519-0.329
			c-0.122-0.063-0.254-0.119-0.391-0.17c-0.015-0.006-0.03-0.012-0.044-0.017c-0.178-0.066-0.372-0.122-0.6-0.173
			c-0.104-0.024-0.208-0.047-0.311-0.062c-0.324-0.05-0.637-0.074-0.956-0.074h-15.368c0.079-0.236,0.142-0.465,0.189-0.678
			c0.013-0.055,0.024-0.12,0.033-0.185c0.064-0.335,0.094-0.641,0.093-0.921c0-0.037-0.001-0.074-0.003-0.111
			c-0.024-0.813-0.288-1.556-0.792-2.186c-0.037-0.043-0.077-0.088-0.121-0.13c-0.224-0.246-0.48-0.459-0.77-0.638
			c-0.041-0.025-0.086-0.05-0.132-0.073c-0.265-0.151-0.534-0.27-0.841-0.368c-0.064-0.02-0.137-0.038-0.211-0.053
			c-0.247-0.067-0.504-0.126-0.795-0.164c-0.338-0.044-0.707-0.067-1.095-0.067c-3.228,0-5.628,1.593-6.761,4.492l-0.42,1.083
			h-17.763c-1.968,0-4.642,0.844-6.206,4.866c-0.13,0.336-0.232,0.648-0.313,0.939c-0.03,0.107-0.053,0.208-0.087,0.364
			c-0.002,0.008-0.004,0.016-0.006,0.023c-0.042,0.187-0.08,0.37-0.1,0.518c-0.026,0.174-0.041,0.338-0.051,0.508
			c-0.008,0.146-0.009,0.286-0.004,0.399c0.006,0.21,0.022,0.417,0.056,0.613c0.017,0.099,0.041,0.192,0.049,0.211
			c0.103,0.439,0.281,0.842,0.512,1.17c0.018,0.028,0.047,0.069,0.067,0.096c0.239,0.323,0.536,0.6,0.808,0.771
			c0.063,0.045,0.167,0.114,0.234,0.152c0.273,0.155,0.571,0.274,0.897,0.362c0.086,0.027,0.201,0.06,0.273,0.074
			c0.374,0.077,0.747,0.114,1.141,0.114h6.629c-5.046,4.307-10.077,8.085-14.982,11.252c-1.594,0.985-2.666,2.159-3.189,3.496
			c-0.589,1.518-0.498,3.035,0.27,4.397c0.845,1.479,2.22,2.294,3.87,2.294c1.331,0,3.571-0.752,10.566-5.855
			c0.458,2.223,1.029,4.243,1.71,6.042c-3.734,1.687-9.682,3.67-17.729,5.909c-3.068,0.858-5.074,2.455-5.963,4.747
			c-0.536,1.383-0.598,2.777-0.184,4.143c0.013,0.042,0.026,0.082,0.042,0.123c0.132,0.352,0.308,0.68,0.489,0.929
			c0.178,0.261,0.395,0.501,0.66,0.73c0.018,0.016,0.054,0.047,0.054,0.047c0.195,0.163,0.391,0.298,0.564,0.393
			c0.221,0.127,0.458,0.233,0.739,0.328c0.125,0.04,0.256,0.071,0.349,0.09c0.35,0.081,0.683,0.12,1.017,0.12
			c0.968,0,3.027-0.343,10.957-2.886c5.346-1.704,10.21-3.701,14.485-5.947c2.188,2.165,5.264,4.122,9.17,5.831
			c4.745,2.048,7.917,3.002,9.981,3.002c2.292,0,5.386-0.939,7.109-5.408c0.717-1.843,0.757-3.291,0.123-4.428
			C174.584,58.617,173.868,57.814,172.47,57.558z M152.279,36.715c3.403-3.096,4.158-4.296,4.437-5.034
			c0.239-0.605,0.376-1.204,0.413-1.785h6.081c-0.042,0.093-0.081,0.187-0.117,0.282c-0.539,1.393-0.237,2.95,0.893,4.619
			c0.043,0.065,0.085,0.127,0.124,0.186c-3.301,4.126-6.783,7.537-10.386,10.174c-1.061-2.416-1.671-5.127-1.822-8.089
			C152.037,36.943,152.165,36.825,152.279,36.715z"/>
		<path fill="#002E2A" d="M245.676,22.959c-0.003-0.017-0.006-0.034-0.01-0.051c-0.076-0.36-0.194-0.744-0.362-1.176l-0.062-0.151
			c-0.161-0.395-0.341-0.773-0.526-1.116c-0.014-0.028-0.029-0.055-0.044-0.083c-0.14-0.255-0.296-0.521-0.431-0.736
			c-0.012-0.021-0.105-0.177-0.117-0.195c-0.196-0.311-0.41-0.632-0.646-0.965c-0.076-0.108-0.164-0.208-0.262-0.297
			c-2.214-3.127-3.702-4.354-5.254-4.354c-1.234,0-2.495,0.479-3.736,1.417c-1.277,0.955-2.115,1.978-2.566,3.137
			c-0.013,0.033-0.024,0.065-0.036,0.098c-1.019,0.05-2.28,0.107-3.793,0.174c-0.169,0.009-0.329,0.019-0.478,0.027
			c-0.116-0.629-0.245-1.423-0.38-2.42c-0.051-0.382-0.164-0.749-0.33-1.094c-0.004-0.01-0.009-0.02-0.013-0.029
			c-0.042-0.111-0.095-0.219-0.158-0.323c-0.203-0.336-0.473-0.639-0.813-0.907c-0.11-0.086-0.233-0.165-0.343-0.226
			c-0.249-0.152-0.524-0.278-0.858-0.385c-0.106-0.034-0.212-0.065-0.328-0.091c-0.389-0.087-0.767-0.129-1.157-0.129
			c-4.364,0-6,2.545-6.587,4.063c-0.238,0.617-0.337,1.315-0.297,2.128c-0.206,0.013-0.422,0.027-0.648,0.042
			c0.011-0.025,0.021-0.051,0.031-0.077c0.121-0.312,0.208-0.599,0.279-0.861c0.037-0.133,0.068-0.264,0.098-0.405
			c0.021-0.1,0.036-0.196,0.051-0.302c0.062-0.38,0.083-0.75,0.063-1.1c0,0-0.003-0.045-0.005-0.068
			c-0.027-0.366-0.102-0.716-0.223-1.044c-0.135-0.364-0.327-0.697-0.569-0.991c-0.004-0.005-0.008-0.01-0.012-0.015
			c-0.059-0.071-0.12-0.141-0.195-0.216c-0.148-0.15-0.309-0.292-0.467-0.401c-0.16-0.114-0.34-0.217-0.529-0.309
			c-0.021-0.011-0.042-0.021-0.063-0.031c-0.154-0.072-0.318-0.136-0.472-0.186c-0.203-0.067-0.42-0.125-0.646-0.167
			c-0.098-0.019-0.335-0.055-0.354-0.057c-0.28-0.036-0.575-0.059-0.904-0.059c-1.254,0-2.473,0.476-3.626,1.418
			c-3.964,3.252-8.755,6.076-14.227,8.388c-1.608,0.668-2.801,1.908-3.452,3.59c-0.601,1.56-0.581,2.977,0.06,4.211
			c0.019,0.036,0.038,0.072,0.059,0.106c0.556,1.011,1.4,1.69,2.446,1.966c0.25,0.065,0.51,0.108,0.778,0.126
			c-0.386,0.562-0.717,1.195-0.989,1.897l-7.009,18.063c-0.144,0.372-0.249,0.716-0.334,1.042c-0.025,0.095-0.08,0.347-0.084,0.367
			c-0.048,0.231-0.083,0.452-0.104,0.664c-0.002,0.02-0.009,0.08-0.01,0.089c-0.011,0.095-0.019,0.189-0.022,0.281
			c-0.014,0.376,0.009,0.715,0.072,1.05c0.024,0.121,0.056,0.233,0.072,0.268c0.005,0.019,0.011,0.038,0.016,0.057
			c0.071,0.251,0.164,0.488,0.276,0.703c0.067,0.131,0.144,0.256,0.226,0.377c0.002,0.003,0.004,0.006,0.006,0.009
			c-1.617,0.352-3.423,0.675-5.414,0.968c-1.743,0.248-3.074,1.516-3.959,3.773c-0.141,0.364-0.255,0.705-0.35,1.028
			c-0.033,0.113-0.057,0.218-0.08,0.322l-0.03,0.125c-0.045,0.18-0.087,0.361-0.115,0.525c-0.027,0.161-0.041,0.306-0.053,0.452
			l1.994,0.161l-2.004-0.042c-0.012,0.13-0.022,0.26-0.022,0.378c-0.001,0.229,0.02,0.433,0.052,0.673
			c0.013,0.106,0.031,0.212,0.051,0.303c0.057,0.248,0.141,0.488,0.269,0.759v0c0.005,0.011,0.091,0.179,0.115,0.22
			c0.153,0.264,0.345,0.504,0.523,0.67c0.023,0.024,0.163,0.149,0.183,0.166c0.244,0.205,0.52,0.375,0.905,0.539
			c0.271,0.108,0.519,0.18,0.721,0.215c0.294,0.06,0.585,0.089,0.891,0.089c3.026,0,7.174-0.948,12.685-2.899
			c7.639-2.715,9.216-4.429,9.787-5.889c0.096-0.249,0.17-0.501,0.223-0.755h6.479c-0.11,0.895,0.096,1.608,0.331,2.099
			c0.57,1.194,1.715,2.053,3.46,2.614c4.608,1.595,8.369,3.083,11.108,4.389c0.558,0.293,1.168,0.441,1.814,0.441
			c2.115,0,4.995-0.929,6.706-5.346c0.528-1.342,0.721-3.88-3.965-5.813c-0.039-0.015-0.078-0.03-0.117-0.045
			c0.743-0.685,1.417-1.633,1.919-2.941l4.897-12.624c3.692-0.309,6.845-3.955,9.625-11.125c0.111-0.288,0.191-0.555,0.252-0.802
			c0.019-0.075,0.034-0.146,0.057-0.265c0.042-0.214,0.069-0.418,0.083-0.623c0.007-0.088,0.013-0.178,0.014-0.282
			c0-0.321-0.031-0.608-0.098-0.885c-0.026-0.106-0.059-0.206-0.098-0.305c-0.061-0.178-0.132-0.343-0.219-0.504
			c0.528-0.568,0.936-1.222,1.222-1.958c0.137-0.351,0.218-0.74,0.25-1.208c0.005-0.083,0.007-0.167,0.008-0.257
			C245.781,23.671,245.747,23.317,245.676,22.959z M233.558,30.818c-0.164-0.132-0.33-0.284-0.519-0.468
			c-0.006-0.006-0.178-0.177-0.178-0.177c-0.491-0.502-1.021-1.14-1.555-1.865c-0.005-0.008-0.015-0.022-0.025-0.036
			c2.55-0.206,3.682-0.545,4.386-0.989c0.026,0.04,0.052,0.079,0.078,0.117c-0.396,0.474-0.755,1.067-1.039,1.81
			c-0.34,0.875-0.602,1.471-0.795,1.874C233.84,31.033,233.558,30.818,233.558,30.818z"/>
		<path fill="#002E2A" d="M62.337,39.382c-2.043-4.01-6.263-6.311-11.577-6.311H31.5c0.088-0.13,0.183-0.266,0.286-0.407
			c3.371-4.641,10-7.758,14.076-7.758h21.146c3.816,0,6.921-3.104,6.921-6.92c0-1.893-0.75-3.657-2.047-4.902
			c-0.02-0.021-0.131-0.127-0.184-0.171c-0.303-0.281-0.594-0.512-0.887-0.704c-0.11-0.073-0.224-0.139-0.396-0.228
			c-0.243-0.142-0.491-0.275-0.753-0.385c-0.205-0.085-0.418-0.152-0.581-0.196l-0.116-0.034c-0.194-0.065-0.39-0.124-0.579-0.161
			c-0.452-0.092-0.916-0.139-1.377-0.139h-0.069c0.253-2.382-0.745-4.816-2.82-6.324c-0.555-0.403-1.171-0.712-1.885-0.951
			c-0.146-0.054-0.293-0.103-0.439-0.141c-0.217-0.057-0.434-0.096-0.761-0.144c-0.167-0.026-0.334-0.048-0.497-0.06
			c-0.133-0.009-0.265-0.014-0.431-0.014c-0.006,0-0.239,0.004-0.239,0.004c-0.189,0.005-0.377,0.015-0.597,0.039
			c-0.21,0.024-0.416,0.058-0.614,0.099c-0.21,0.043-0.416,0.097-0.638,0.164c-0.185,0.058-0.367,0.118-0.541,0.188
			c-0.215,0.085-0.422,0.185-0.708,0.335c-0.143,0.074-0.285,0.152-0.416,0.235c-0.225,0.142-0.44,0.305-0.675,0.495
			c-0.122,0.093-0.24,0.19-0.348,0.291c-0.339,0.316-0.627,0.641-0.881,0.99l-3.482,4.793h-5.106
			c-8.538,0-18.92,5.344-24.679,12.697l-0.167,0.21c-0.147,0.185-0.294,0.37-0.429,0.557c-4.156,5.72-5.141,11.429-2.774,16.073
			c2.043,4.011,6.263,6.311,11.578,6.311h19.257c-0.087,0.131-0.181,0.267-0.283,0.407c-3.371,4.641-10,7.758-14.076,7.758H13.143
			c-3.816,0-6.921,3.104-6.921,6.92c0,3.816,3.104,6.921,6.921,6.921h0.073c-0.062,0.597-0.047,1.204,0.049,1.809
			c0.29,1.826,1.272,3.429,2.767,4.515c1.191,0.866,2.597,1.324,4.065,1.324c0.265,0,0.53-0.016,0.789-0.045
			c0.17-0.019,0.339-0.053,0.503-0.101c1.751-0.328,3.279-1.29,4.33-2.736c0,0,3.351-4.72,3.382-4.765h5.188
			c8.832,0,19.698-5.788,25.275-13.464C63.718,49.736,64.704,44.027,62.337,39.382z"/>
	</g>
	<g>
		<path fill="#24ADE4" d="M20.097,74.566c-1.043,0-2.042-0.326-2.89-0.941c-1.063-0.772-1.762-1.912-1.967-3.21
			c-0.195-1.231,0.075-2.464,0.763-3.496h-2.86c-2.713,0-4.921-2.208-4.921-4.921c0-2.713,2.208-4.92,4.921-4.92h21.146
			c4.55,0,11.844-3.281,15.694-8.583c0.2-0.274,0.373-0.533,0.531-0.783l0.097-0.158c0.142-0.233,0.238-0.397,0.323-0.553
			l0.113-0.213c0.078-0.15,0.144-0.288,0.204-0.42l0.084-0.185c0.064-0.15,0.118-0.293,0.166-0.429
			c0.027-0.078,0.132-0.438,0.132-0.438c0.018-0.071,0.032-0.145,0.045-0.214c0.008-0.048,0.015-0.087,0.02-0.121
			c-0.194-0.037-0.472-0.068-0.851-0.068H29.391c-4.568,0-8.106-1.902-9.795-5.219c-2.008-3.941-1.081-8.909,2.61-13.99
			c0.119-0.164,0.247-0.324,0.375-0.485l0.17-0.214c5.418-6.918,15.138-11.939,23.111-11.939h6.125l4.082-5.618
			c0.179-0.247,0.384-0.477,0.627-0.704c0.063-0.059,0.13-0.112,0.199-0.165c0.203-0.163,0.36-0.287,0.527-0.392
			c0.085-0.054,0.177-0.103,0.269-0.151c0.217-0.114,0.368-0.189,0.526-0.252c0.128-0.051,0.259-0.094,0.392-0.135
			c0.15-0.045,0.298-0.084,0.448-0.115c0.144-0.03,0.291-0.054,0.44-0.071c0.145-0.015,0.282-0.022,0.419-0.026l0.208-0.004
			c0.091,0,0.183,0.003,0.275,0.009c0.106,0.007,0.216,0.023,0.326,0.041c0.248,0.037,0.406,0.062,0.563,0.103
			c0.087,0.022,0.17,0.052,0.254,0.083c0.58,0.195,1.019,0.414,1.4,0.691c2.14,1.554,2.657,4.524,1.204,6.706h2.862
			c0.328,0,0.657,0.033,0.979,0.099c0.113,0.022,0.225,0.058,0.335,0.095l0.177,0.054c0.134,0.037,0.267,0.076,0.393,0.129
			c0.181,0.075,0.35,0.17,0.517,0.267c0.156,0.083,0.23,0.123,0.301,0.169c0.224,0.147,0.431,0.318,0.629,0.502
			c0.01,0.009,0.082,0.07,0.091,0.079c0.962,0.926,1.5,2.183,1.5,3.527c0,2.713-2.208,4.92-4.921,4.92H45.862
			c-4.549,0-11.843,3.281-15.694,8.583c-1.297,1.786-1.636,2.954-1.721,3.512c0.194,0.037,0.474,0.07,0.856,0.07H50.76
			c4.567,0,8.105,1.902,9.795,5.219c2.008,3.941,1.081,8.91-2.61,13.99c-5.235,7.206-15.405,12.639-23.657,12.639H27.93
			c-0.144,0.339-0.325,0.66-0.542,0.958l-3.3,4.65c-0.758,1.043-1.902,1.738-3.185,1.948c-0.075,0.029-0.155,0.049-0.238,0.058
			C20.476,74.555,20.287,74.566,20.097,74.566z"/>
		<path fill="#24ADE4" d="M69.722,15.166c-0.02-0.02-0.043-0.034-0.063-0.052c-0.158-0.146-0.322-0.284-0.502-0.402
			c-0.063-0.042-0.136-0.071-0.202-0.109c-0.146-0.084-0.291-0.172-0.448-0.237c-0.125-0.052-0.259-0.082-0.39-0.121
			c-0.111-0.033-0.216-0.077-0.332-0.1c-0.251-0.051-0.512-0.079-0.778-0.079h-4.819l1.033-1.422
			c1.272-1.752,0.884-4.203-0.868-5.476c-0.333-0.243-0.697-0.406-1.069-0.53c-0.083-0.028-0.164-0.063-0.248-0.084
			c-0.135-0.035-0.271-0.054-0.409-0.074c-0.1-0.015-0.2-0.033-0.3-0.04c-0.129-0.009-0.256-0.007-0.385-0.003
			c-0.111,0.003-0.222,0.008-0.332,0.02c-0.119,0.014-0.236,0.033-0.354,0.058c-0.12,0.024-0.237,0.056-0.354,0.091
			c-0.106,0.033-0.211,0.066-0.315,0.107c-0.126,0.05-0.247,0.112-0.368,0.175c-0.089,0.047-0.179,0.091-0.265,0.146
			c-0.133,0.084-0.257,0.184-0.381,0.285c-0.065,0.053-0.134,0.099-0.196,0.157c-0.181,0.168-0.35,0.353-0.5,0.561l-4.381,6.03
			h-6.635c-7.701,0-17.129,4.923-22.323,11.554c-0.175,0.224-0.359,0.445-0.524,0.672c-3.459,4.761-4.357,9.36-2.528,12.948
			c1.513,2.97,4.727,4.673,8.816,4.673h0.088H50.76h0.088c1.326,0,1.804,0.339,1.829,0.391c0.016,0.03,0.029,0.081,0.04,0.148
			c0.016,0.104,0.016,0.265,0,0.458v-0.002c-0.007,0.082-0.02,0.176-0.036,0.273c-0.005,0.032-0.012,0.066-0.019,0.101
			c-0.016,0.088-0.035,0.18-0.06,0.279c-0.019,0.075-0.045,0.158-0.069,0.24c-0.026,0.091-0.054,0.183-0.088,0.282
			c-0.054,0.155-0.117,0.319-0.191,0.494c-0.028,0.065-0.062,0.136-0.093,0.204c-0.067,0.147-0.14,0.3-0.223,0.46
			c-0.04,0.079-0.083,0.159-0.128,0.241c-0.093,0.169-0.196,0.347-0.308,0.528c-0.048,0.079-0.093,0.156-0.146,0.238
			c-0.169,0.266-0.354,0.542-0.566,0.834c-4.036,5.557-11.709,8.995-16.503,8.995H13.143c-2.165,0-3.921,1.756-3.921,3.92
			c0,2.166,1.756,3.921,3.921,3.921h4.794l-1.008,1.421c-1.273,1.752-0.884,4.204,0.868,5.476c0.696,0.506,1.501,0.75,2.301,0.75
			c0.152,0,0.304-0.01,0.456-0.027c-0.032-0.003-0.064-0.011-0.097-0.015c1.085-0.1,2.125-0.625,2.816-1.576l3.306-4.659
			c0.308-0.424,0.515-0.891,0.632-1.371h7.077c7.961,0,17.783-5.256,22.848-12.227c3.459-4.761,4.356-9.36,2.528-12.948
			c-1.513-2.97-4.727-4.673-8.816-4.673H50.76h-4.491H29.391h-0.088c-0.694,0-1.151-0.093-1.438-0.189
			c-0.116-0.039-0.195-0.077-0.258-0.111c-0.018-0.01-0.037-0.02-0.051-0.028c-0.042-0.027-0.078-0.052-0.083-0.062
			c-0.13-0.256-0.203-1.907,1.885-4.78c4.036-5.556,11.709-8.995,16.503-8.995h21.146c2.165,0,3.921-1.756,3.921-3.92
			C70.929,16.876,70.463,15.879,69.722,15.166z"/>
		<g>
			<linearGradient id="SVGID_1_" gradientUnits="userSpaceOnUse" x1="58.4707" y1="17.2285" x2="56.1016" y2="8.2663">
				<stop  offset="0" style="stop-color:#1E459B"/>
				<stop  offset="1" style="stop-color:#24ADE4"/>
			</linearGradient>
			<path fill="url(#SVGID_1_)" d="M55.062,21.122c-0.799,0-1.605-0.244-2.302-0.75c-1.751-1.272-2.14-3.724-0.867-5.476l4.985-6.861
				c1.273-1.752,3.726-2.141,5.476-0.868c1.751,1.272,2.14,3.724,0.868,5.476l-4.985,6.861
				C57.47,20.561,56.274,21.122,55.062,21.122z"/>
			<linearGradient id="SVGID_2_" gradientUnits="userSpaceOnUse" x1="23.5068" y1="75.3799" x2="37.0285" y2="50.4715">
				<stop  offset="0" style="stop-color:#1E459B"/>
				<stop  offset="1" style="stop-color:#24ADE4"/>
			</linearGradient>
			<path fill="url(#SVGID_2_)" d="M59.664,40.744c-1.513-2.97-4.727-4.673-8.816-4.673H50.76h-4.491
				c3.654,0.593,6.448,3.754,6.448,7.576v0.805c0.078,0.511-0.081,2.093-1.925,4.631c-4.036,5.557-11.709,8.995-16.503,8.995H13.143
				c-2.165,0-3.921,1.756-3.921,3.92c0,2.166,1.756,3.921,3.921,3.921h21.146c7.961,0,17.783-5.256,22.848-12.227
				C60.595,48.932,61.492,44.333,59.664,40.744z"/>
			<linearGradient id="SVGID_3_" gradientUnits="userSpaceOnUse" x1="52.8242" y1="43.2559" x2="20.7488" y2="33.317">
				<stop  offset="0" style="stop-color:#1E459B"/>
				<stop  offset="1" style="stop-color:#24ADE4"/>
			</linearGradient>
			<path fill="url(#SVGID_3_)" d="M46.269,36.071H29.391h-0.088c-0.694,0-1.151-0.093-1.438-0.189
				c-3.043-0.719-5.309-3.45-5.309-6.712c0-1.298,0.359-2.513,0.982-3.55c-0.175,0.224-0.359,0.445-0.524,0.672
				c-3.459,4.761-4.357,9.36-2.528,12.948c1.513,2.97,4.727,4.673,8.816,4.673h0.088H50.76h0.088c1.326,0,1.804,0.339,1.829,0.391
				c0.016,0.03,0.029,0.081,0.04,0.148v-0.805C52.716,39.825,49.923,36.664,46.269,36.071z"/>
			<path fill="#24ADE4" d="M53.675,20.667c-1.751-1.273-2.14-3.725-0.867-5.477l4.985-6.861c0.925-1.274,2.475-1.816,3.924-1.533
				c-1.669-0.788-3.714-0.31-4.839,1.239l-4.985,6.861c-1.273,1.752-0.885,4.203,0.867,5.476c0.484,0.352,1.023,0.569,1.575,0.673
				C54.107,20.94,53.885,20.819,53.675,20.667z"/>
			<linearGradient id="SVGID_4_" gradientUnits="userSpaceOnUse" x1="31.499" y1="39.5269" x2="49.7774" y2="19.7564">
				<stop  offset="0" style="stop-color:#1E459B"/>
				<stop  offset="1" style="stop-color:#24ADE4"/>
			</linearGradient>
			<path fill="url(#SVGID_4_)" d="M67.008,14.065H45.862c-7.701,0-17.129,4.923-22.323,11.554c-0.624,1.038-0.982,2.252-0.982,3.55
				c0,3.263,2.266,5.993,5.309,6.712c-0.26-0.087-0.38-0.177-0.392-0.201c-0.13-0.256-0.203-1.907,1.885-4.78
				c4.036-5.556,11.709-8.995,16.503-8.995h21.146c2.165,0,3.921-1.756,3.921-3.92C70.929,15.82,69.173,14.065,67.008,14.065z"/>
			<g>
				<path fill="#24ADE4" d="M46.269,36.071H29.391h-0.088c-0.694,0-1.151-0.093-1.438-0.189c-2.908-0.687-5.102-3.213-5.29-6.283
					c-0.003,0.09-0.019,0.178-0.019,0.27c0,3.262,2.266,5.992,5.309,6.711c0.287,0.096,0.744,0.189,1.438,0.189h0.088h16.878
					c3.654,0.592,6.448,3.754,6.448,7.575v-0.698C52.716,39.825,49.923,36.664,46.269,36.071z"/>
			</g>
			<g>
				<path fill="#24ADE4" d="M22.657,29.916c0-1.299,0.359-2.513,0.983-3.551c5.192-6.63,14.622-11.555,22.322-11.555h21.146
					c1.851,0,3.393,1.288,3.805,3.012c-0.088-2.088-1.795-3.757-3.904-3.757H45.862c-7.701,0-17.129,4.923-22.323,11.554
					c-0.624,1.038-0.982,2.252-0.982,3.55c0,0.44,0.044,0.871,0.124,1.288C22.667,30.278,22.657,30.099,22.657,29.916z"/>
				<path fill="#24ADE4" d="M27.865,35.882c-0.163-0.054-0.266-0.109-0.326-0.149c-0.002,0.018-0.005,0.038-0.007,0.055
					C27.643,35.82,27.752,35.855,27.865,35.882z"/>
			</g>
			<g>
				<path fill="#24ADE4" d="M13.143,58.979h21.146c4.794,0,12.467-3.438,16.503-8.995c1.844-2.538,2.002-4.121,1.925-4.631v-0.444
					c-0.063,0.751-0.457,2.155-1.925,4.175c-4.036,5.557-11.709,8.995-16.503,8.995H13.143c-2.165,0-3.921,1.756-3.921,3.92
					c0,0.155,0.028,0.301,0.046,0.45C9.493,60.499,11.131,58.979,13.143,58.979z"/>
			</g>
			<linearGradient id="SVGID_5_" gradientUnits="userSpaceOnUse" x1="23.1016" y1="74.5337" x2="21.0755" y2="63.6851">
				<stop  offset="0" style="stop-color:#1E459B"/>
				<stop  offset="1" style="stop-color:#24ADE4"/>
			</linearGradient>
			<path fill="url(#SVGID_5_)" d="M20.097,73.566c-0.8,0-1.605-0.244-2.301-0.75c-1.752-1.272-2.141-3.724-0.868-5.476l3.306-4.66
				c1.273-1.751,3.726-2.139,5.477-0.867c1.752,1.272,2.14,3.724,0.868,5.477l-3.306,4.659
				C22.505,73.005,21.31,73.566,20.097,73.566z"/>
			<path fill="#24ADE4" d="M18.599,72.816c-1.752-1.272-2.14-3.724-0.867-5.476l3.307-4.66c0.68-0.935,1.697-1.467,2.762-1.58
				c-1.342-0.135-2.715,0.411-3.566,1.58l-3.306,4.66c-1.273,1.752-0.884,4.204,0.868,5.476c0.696,0.506,1.501,0.75,2.301,0.75
				c0.152,0,0.304-0.01,0.456-0.027C19.87,73.479,19.194,73.249,18.599,72.816z"/>
		</g>
		<g>
			
				<linearGradient id="SVGID_6_" gradientUnits="userSpaceOnUse" x1="88.0283" y1="58.0518" x2="90.9145" y2="41.6832" gradientTransform="matrix(1 0 0.2867 1 -12.1292 0)">
				<stop  offset="0" style="stop-color:#1E459B"/>
				<stop  offset="1" style="stop-color:#24ADE4"/>
			</linearGradient>
			<path fill="url(#SVGID_6_)" d="M101.187,43.438l-2.475,6.382h-0.008c-1.607,1.286-4.149,2.729-7.625,4.336
				c-3.482,1.607-5.815,2.415-6.992,2.415c-2.077,0-2.638-1.215-1.696-3.646c0.401-1.035,1.466-1.889,3.191-2.571
				c6.169-2.36,10.902-4.666,14.21-6.916H101.187z"/>
			
				<linearGradient id="SVGID_7_" gradientUnits="userSpaceOnUse" x1="93.0996" y1="26.8955" x2="95.0124" y2="16.0477" gradientTransform="matrix(1 0 0.2867 1 -12.1292 0)">
				<stop  offset="0" style="stop-color:#1E459B"/>
				<stop  offset="1" style="stop-color:#24ADE4"/>
			</linearGradient>
			<path fill="url(#SVGID_7_)" d="M87.661,26.339c0.348,0.394,0.824,0.589,1.433,0.589c0.979-0.035,1.963-0.5,2.953-1.394
				c0.939-0.857,1.556-1.662,1.847-2.412c0.387-1-0.445-2.447-2.498-4.342c-2.066-1.857-3.511-2.787-4.332-2.787
				c-0.895,0-1.822,0.411-2.784,1.232c-0.984,0.787-1.635,1.591-1.954,2.412c-0.305,0.787-0.117,1.501,0.563,2.145
				C84.687,23.32,86.277,24.838,87.661,26.339z"/>
			
				<linearGradient id="SVGID_8_" gradientUnits="userSpaceOnUse" x1="120.0723" y1="26.4277" x2="117.7948" y2="16.3863" gradientTransform="matrix(1 0 0.2867 1 -12.1292 0)">
				<stop  offset="0" style="stop-color:#1E459B"/>
				<stop  offset="1" style="stop-color:#24ADE4"/>
			</linearGradient>
			<path fill="url(#SVGID_8_)" d="M130.839,21.301c-0.836,2.141-2.145,3.215-3.932,3.215H96.515c-1.787,0-2.261-1.074-1.432-3.215
				c0.775-2,2.056-3.003,3.844-3.003h30.394C131.107,18.298,131.614,19.301,130.839,21.301z"/>
			
				<linearGradient id="SVGID_9_" gradientUnits="userSpaceOnUse" x1="85.6328" y1="36.9834" x2="87.5484" y2="26.1197" gradientTransform="matrix(1 0 0.2867 1 -12.1292 0)">
				<stop  offset="0" style="stop-color:#1E459B"/>
				<stop  offset="1" style="stop-color:#24ADE4"/>
			</linearGradient>
			<path fill="url(#SVGID_9_)" d="M83.176,36.524c0.269,0.322,0.706,0.483,1.313,0.483c0.951,0.035,1.915-0.375,2.891-1.233
				c1.024-0.893,1.684-1.715,1.975-2.466c0.388-1-0.445-2.447-2.498-4.342c-2.038-1.93-3.487-2.895-4.345-2.895
				c-0.894,0-1.814,0.394-2.763,1.179c-0.97,0.75-1.621,1.555-1.953,2.412c-0.347,0.894-0.239,1.537,0.324,1.93
				C80.126,33.236,81.812,34.88,83.176,36.524z"/>
			
				<linearGradient id="SVGID_10_" gradientUnits="userSpaceOnUse" x1="150.832" y1="38.2363" x2="155.9044" y2="58.526" gradientTransform="matrix(1 0 0.2867 1 -12.1292 0)">
				<stop  offset="0" style="stop-color:#1E459B"/>
				<stop  offset="1" style="stop-color:#24ADE4"/>
			</linearGradient>
			<path fill="url(#SVGID_10_)" d="M172.947,62.946c-1.062,2.752-2.814,4.133-5.245,4.133c-1.749,0-4.812-0.949-9.188-2.839
				c-4.231-1.851-7.367-3.952-9.394-6.312c-0.049-0.063-0.104-0.118-0.152-0.18c-1.352-1.592-2.609-3.654-3.326-5.254
				c-0.023-0.055-0.045-0.102-0.066-0.149c-1.261-2.783-2.201-6.257-2.803-10.405c2.195-1.639,5.024-3.944,7.097-5.74
				c0.082,4.305,1.025,8.116,2.849,11.441c0.084,0.157,0.167,0.306,0.259,0.462c0.718,1.247,1.729,2.611,3.823,4.666
				c0.143,0.141,0.285,0.282,0.436,0.423c3.04,2.862,7.988,4.971,14.847,6.328C173.448,59.771,173.737,60.916,172.947,62.946z"/>
			
				<linearGradient id="SVGID_11_" gradientUnits="userSpaceOnUse" x1="63.1685" y1="67.8555" x2="65.8876" y2="52.4347" gradientTransform="matrix(1 0 0.2867 1 -12.1292 0)">
				<stop  offset="0" style="stop-color:#1E459B"/>
				<stop  offset="1" style="stop-color:#24ADE4"/>
			</linearGradient>
			<path fill="url(#SVGID_11_)" d="M74.793,53.442l-0.153,0.396c-0.929,2.395-3.854,4.824-8.776,7.29
				c-0.896,0.464-1.53,1.179-1.903,2.144c-0.361,0.929-0.344,1.804,0.053,2.626c0.445,0.786,1.15,1.18,2.116,1.18
				c0.857,0,2.399-0.751,4.625-2.252c2.222-1.498,4.021-2.872,5.398-4.121C74.436,58.199,74.42,55.428,74.793,53.442z"/>
			
				<linearGradient id="SVGID_12_" gradientUnits="userSpaceOnUse" x1="236.9331" y1="26.8481" x2="235.9672" y2="19.5687" gradientTransform="matrix(1 0 0.2867 1 -12.1292 0)">
				<stop  offset="0" style="stop-color:#1E459B"/>
				<stop  offset="1" style="stop-color:#24ADE4"/>
			</linearGradient>
			<path fill="url(#SVGID_12_)" d="M227.765,26.543c0.089-0.042,1.387-0.17,2.428-0.201c2.482-0.149,3.975-0.416,4.489-0.808
				c0.507-0.392,0.92-1.004,1.243-1.819c-0.669-1.251-2.205-2.411-2.467-3.324c-1.172,0.07-3.005,0.157-5.515,0.266
				c-1.168,0.066-1.874,0.105-2.138,0.109C226.017,21.818,226.635,24.798,227.765,26.543z"/>
			
				<linearGradient id="SVGID_13_" gradientUnits="userSpaceOnUse" x1="219.833" y1="28.7915" x2="218.1078" y2="20.4402" gradientTransform="matrix(1 0 0.2867 1 -12.1292 0)">
				<stop  offset="0" style="stop-color:#1E459B"/>
				<stop  offset="1" style="stop-color:#24ADE4"/>
			</linearGradient>
			<path fill="url(#SVGID_13_)" d="M218.39,20.97c0.016,0.059,0.021,0.107,0.039,0.167c-0.727,0.039-1.898,0.109-3.514,0.219
				c-1.353,0.07-2.205,0.102-2.566,0.102c-1.678,0.11-2.846,0.988-3.48,2.627c-0.842,2.18-0.411,3.27,1.306,3.27
				c0.353,0,1.955-0.102,4.785-0.321c2.11-0.138,3.698-0.224,4.747-0.264c0.027-0.001,0.078-0.003,0.078-0.003
				s0.131,0.339-0.002-0.068C219.171,24.823,218.751,22.354,218.39,20.97z"/>
			<path fill="#24ADE4" d="M82.837,53.035c0.4-1.035,1.466-1.889,3.191-2.572c6.168-2.36,10.901-4.666,14.209-6.916h0.907
				l0.042-0.109h-1.395c-3.308,2.25-8.041,4.556-14.21,6.916c-1.726,0.682-2.79,1.537-3.191,2.571
				c-0.842,2.176-0.473,3.37,1.102,3.599C82.31,56.137,82.082,54.983,82.837,53.035z"/>
			<path fill="#24ADE4" d="M95.451,21.684c0.775-2,2.056-3.003,3.844-3.003h30.394c0.58,0,1.011,0.117,1.32,0.328
				c-0.264-0.47-0.823-0.71-1.688-0.71H98.927c-1.788,0-3.068,1.003-3.844,3.003c-0.576,1.489-0.509,2.449,0.179,2.904
				C94.949,23.672,95.005,22.838,95.451,21.684z"/>
			
				<linearGradient id="SVGID_14_" gradientUnits="userSpaceOnUse" x1="188.1533" y1="68.7002" x2="179.8039" y2="57.1078" gradientTransform="matrix(1 0 0.2867 1 -12.1292 0)">
				<stop  offset="0" style="stop-color:#1E459B"/>
				<stop  offset="1" style="stop-color:#24ADE4"/>
			</linearGradient>
			<path fill="url(#SVGID_14_)" d="M180.546,60.649c-0.987,0.141-1.774,0.979-2.377,2.517c-0.994,2.572-0.603,3.858,1.186,3.858
				c2.791,0,6.789-0.934,12.015-2.784c5.229-1.858,8.087-3.435,8.59-4.721c0.22-0.572,0.247-1.16,0.087-1.771l-0.053-0.267h-6.916
				C190.325,58.767,186.151,59.826,180.546,60.649z"/>
			
				<linearGradient id="SVGID_15_" gradientUnits="userSpaceOnUse" x1="109.0483" y1="56.3887" x2="111.2604" y2="43.8434" gradientTransform="matrix(1 0 0.2867 1 -12.1292 0)">
				<stop  offset="0" style="stop-color:#1E459B"/>
				<stop  offset="1" style="stop-color:#24ADE4"/>
			</linearGradient>
			<path fill="url(#SVGID_15_)" d="M119.567,52.98c-0.942,2.431-2.455,3.662-4.538,3.701c-1.074,0-2.792-0.823-5.153-2.47
				c-2.368-1.639-3.953-3.145-4.741-4.5l2.427-6.273h1.719c1.992,2.792,5.128,5.112,9.408,6.971
				C119.762,50.871,120.058,51.733,119.567,52.98z"/>
			<path fill="#24ADE4" d="M82.695,20.066c0.319-0.821,0.97-1.625,1.954-2.412c0.962-0.822,1.89-1.233,2.783-1.233
				c0.822,0,2.266,0.93,4.332,2.787c0.425,0.392,0.785,0.76,1.104,1.113c-0.392-0.478-0.874-0.987-1.474-1.541
				c-2.066-1.857-3.511-2.787-4.332-2.787c-0.895,0-1.822,0.411-2.784,1.232c-0.984,0.787-1.635,1.591-1.954,2.412
				c-0.305,0.787-0.117,1.501,0.563,2.145c0.003,0.002,0.005,0.003,0.007,0.006C82.525,21.259,82.456,20.686,82.695,20.066z"/>
			<path fill="#24ADE4" d="M78.165,30.091c0.333-0.858,0.984-1.662,1.954-2.413c0.948-0.786,1.868-1.179,2.762-1.179
				c0.858,0,2.307,0.965,4.346,2.895c0.425,0.392,0.784,0.76,1.104,1.113c-0.392-0.477-0.874-0.987-1.475-1.541
				c-2.038-1.93-3.487-2.895-4.345-2.895c-0.894,0-1.814,0.394-2.763,1.179c-0.97,0.75-1.621,1.555-1.953,2.412
				c-0.342,0.883-0.24,1.521,0.306,1.915C77.909,31.199,77.927,30.706,78.165,30.091z"/>
			<g>
				<path fill="#24ADE4" d="M64.093,63.738c0.374-0.965,1.008-1.68,1.904-2.144c4.722-2.365,7.6-4.697,8.647-6.997
					c0.033-0.404,0.081-0.795,0.148-1.154l-0.153,0.396c-0.929,2.395-3.854,4.824-8.776,7.29c-0.896,0.464-1.53,1.179-1.903,2.144
					c-0.316,0.814-0.324,1.584-0.059,2.316C63.788,64.996,63.844,64.381,64.093,63.738z"/>
				<path fill="#24ADE4" d="M76.058,60.788c0.029-0.027,0.065-0.056,0.095-0.083c-0.556-0.812-0.919-1.651-1.163-2.483
					C75.19,59.076,75.54,59.942,76.058,60.788z"/>
			</g>
			<path fill="#24ADE4" d="M149.133,36.831c0.159,4.045,1.089,7.649,2.821,10.809c0.084,0.157,0.166,0.306,0.258,0.462
				c0.719,1.247,1.729,2.611,3.824,4.666c0.143,0.141,0.284,0.282,0.435,0.423c1.921,1.808,5.073,3.324,8.862,4.539
				c-3.468-1.21-6.169-2.722-8.098-4.539c-0.15-0.141-0.293-0.282-0.436-0.423c-2.094-2.055-3.105-3.419-3.823-4.666
				c-0.092-0.157-0.175-0.306-0.259-0.462c-1.823-3.325-2.767-7.136-2.849-11.441C149.634,36.403,149.386,36.616,149.133,36.831z"/>
			<path fill="#24ADE4" d="M227.805,20.947c2.556-0.1,4.478-0.181,5.787-0.248c-0.057-0.105-0.105-0.208-0.134-0.308
				c-1.172,0.07-3.005,0.157-5.515,0.266c-1.168,0.066-1.874,0.105-2.138,0.109c0.016,0.075,0.038,0.18,0.057,0.274
				C226.278,21.024,226.92,20.993,227.805,20.947z"/>
			<g>
				<path fill="#24ADE4" d="M219.837,26.892c0.01,0.018,0.004-0.013-0.055-0.193s-0.114-0.37-0.17-0.56
					C219.685,26.396,219.76,26.648,219.837,26.892z"/>
				<path fill="#24ADE4" d="M208.951,24.374c0.636-1.639,1.803-2.517,3.481-2.627c0.36,0,1.213-0.031,2.565-0.102
					c1.608-0.11,2.776-0.18,3.503-0.219c-0.037-0.16-0.075-0.317-0.111-0.457c0.016,0.059,0.021,0.107,0.039,0.167
					c-0.727,0.039-1.898,0.109-3.514,0.219c-1.353,0.07-2.205,0.102-2.566,0.102c-1.678,0.11-2.846,0.988-3.48,2.627
					c-0.436,1.125-0.523,1.954-0.277,2.499C208.476,26.048,208.586,25.32,208.951,24.374z"/>
			</g>
			<path fill="#24ADE4" d="M178.892,63.415c0.604-1.536,1.389-2.375,2.377-2.517c5.375-0.789,9.461-1.758,12.187-3.011
				c0.311-0.143,0.161-0.354,0.272-0.406h-0.65c-2.752,1.286-6.926,2.345-12.531,3.168c-0.987,0.141-1.774,0.979-2.377,2.517
				c-0.91,2.353-0.645,3.616,0.771,3.817C178.188,66.476,178.165,65.292,178.892,63.415z"/>
			
				<linearGradient id="SVGID_16_" gradientUnits="userSpaceOnUse" x1="207.0825" y1="51.7456" x2="222.6104" y2="70.4826" gradientTransform="matrix(1 0 0.2867 1 -12.1292 0)">
				<stop  offset="0" style="stop-color:#1E459B"/>
				<stop  offset="1" style="stop-color:#24ADE4"/>
			</linearGradient>
			<path fill="url(#SVGID_16_)" d="M211.622,57.481c-0.125,0.141-0.296,0.392-0.498,0.752c-0.022,0.032-0.05,0.071-0.102,0.11
				c-0.134,0.243-0.242,0.494-0.343,0.745c-0.567,1.466,0.194,2.54,2.294,3.215c4.666,1.615,8.459,3.113,11.385,4.509
				c0.268,0.141,0.563,0.212,0.884,0.212c2.18,0,3.791-1.357,4.845-4.078c0.463-1.176-0.487-2.25-2.826-3.215
				c-2.392-0.925-4.117-1.584-5.18-1.983c-0.281-0.103-0.533-0.228-0.662-0.267H211.622z"/>
			
				<linearGradient id="SVGID_17_" gradientUnits="userSpaceOnUse" x1="95.8901" y1="51.4141" x2="96.1827" y2="49.7551" gradientTransform="matrix(1 0 0.2867 1 -12.1292 0)">
				<stop  offset="0" style="stop-color:#1E459B"/>
				<stop  offset="1" style="stop-color:#24ADE4"/>
			</linearGradient>
			<line fill="url(#SVGID_17_)" x1="98.704" y1="49.82" x2="98.116" y2="51.349"/>
			
				<linearGradient id="SVGID_18_" gradientUnits="userSpaceOnUse" x1="105.2368" y1="61.3818" x2="111.8641" y2="23.7966" gradientTransform="matrix(1 0 0.2867 1 -12.1292 0)">
				<stop  offset="0" style="stop-color:#1E459B"/>
				<stop  offset="1" style="stop-color:#24ADE4"/>
			</linearGradient>
			<path fill="url(#SVGID_18_)" d="M124.087,26.821H97.874c-2.502,0-4.29,1.396-5.373,4.179l-3.185,8.203
				c-1.096,2.823-0.386,4.235,2.116,4.235h9.754l-2.475,6.382l-0.596,1.529l-2.023,5.222c-0.684,1.749,0.016,2.627,2.094,2.627
				c2.172,0,3.606-0.878,4.281-2.627l2.667-6.861l2.427-6.273h10.076c2.572,0,4.411-1.412,5.507-4.235L126.321,31
				C127.404,28.217,126.659,26.821,124.087,26.821z M104.288,35.439l-0.752,1.944h-6.484c-0.611,0-0.816-0.25-0.623-0.752
				l1.146-2.948c0.208-0.534,0.61-0.8,1.222-0.8h6.484L104.288,35.439z M119.013,33.683l-1.146,2.948
				c-0.193,0.502-0.632,0.752-1.306,0.752h-6.649l0.359-0.933l1.392-3.568h6.643C118.987,32.883,119.222,33.149,119.013,33.683z"/>
			<g>
				<path fill="#24ADE4" d="M104.653,36.027l1.221-3.145h-0.594l-0.992,2.556l-0.752,1.944h-6.619c-0.375,0-0.53-0.28-0.53-0.28
					c-0.104,0.408,0.192,0.868,0.744,0.868h6.771L104.653,36.027z"/>
				<path fill="#24ADE4" d="M118.231,37.219l1.302-3.381c0.16-0.412-0.429-0.861-0.797-0.956c-0.013,0.054,0.458,0.236,0.327,0.641
					l-1.196,3.107c-0.193,0.502-0.632,0.752-1.306,0.752h-6.649l-0.227,0.588h7.24C117.601,37.972,118.038,37.721,118.231,37.219z"
					/>
				<path fill="#24ADE4" d="M89.681,39.791l3.185-8.202c1.083-2.784,2.871-4.179,5.372-4.179h26.214
					c1.044,0,1.782,0.234,2.225,0.694c-0.305-0.853-1.166-1.282-2.589-1.282H97.874c-2.502,0-4.29,1.396-5.373,4.179l-3.185,8.203
					c-0.663,1.709-0.66,2.897-0.003,3.572C89.061,42.074,89.18,41.082,89.681,39.791z"/>
				<path fill="#24ADE4" d="M96.457,57.16l2.022-5.223l0.598-1.529l2.703-6.971h-0.594l-2.475,6.382l-0.596,1.529l-2.023,5.222
					c-0.382,0.978-0.315,1.674,0.166,2.105C96.157,58.277,96.217,57.776,96.457,57.16z"/>
			</g>
			
				<linearGradient id="SVGID_19_" gradientUnits="userSpaceOnUse" x1="88.5596" y1="67.6323" x2="93.3916" y2="40.2284" gradientTransform="matrix(1 0 0.2867 1 -12.1292 0)">
				<stop  offset="0" style="stop-color:#1E459B"/>
				<stop  offset="1" style="stop-color:#24ADE4"/>
			</linearGradient>
			<path fill="url(#SVGID_19_)" d="M114.371,60.305c-1.286,0-3.734,0-7.344,0c-5.231,0.035-9.205,0.054-11.921,0.054
				c-4.682,0-8.358-0.608-11.031-1.822c-2.688-1.18-3.346-3.537-2.584-5.502l4.261-10.989c0.859-2.215,0.021-3.323-2.518-3.323
				h-6.646c-1.895,0-3.243,1.037-4.046,3.109c-0.846,2.18-0.321,3.27,1.573,3.27h2.52c0.928,0,1.282,0.286,1.061,0.857l-2.902,7.484
				c-0.373,1.986-0.357,4.757,1.359,7.263c0.002-0.002,0.005-0.004,0.008-0.006c1.526,2.144,3.97,4.322,7.938,4.966
				c3.954,0.679,11.576,1.019,22.869,1.019c4.216,0,6.618-0.251,7.206-0.75c0.6-0.536,1.129-1.394,1.586-2.573
				C116.621,61.323,116.158,60.305,114.371,60.305z"/>
			<g>
				<path fill="#24ADE4" d="M82.406,57.429c0.466,0.591,1.129,1.111,2.018,1.501c2.673,1.214,6.351,1.823,11.032,1.823
					c2.716,0,6.689-0.019,11.921-0.054c3.608,0,6.058,0,7.344,0c0.587,0,1.017,0.121,1.317,0.341
					c-0.24-0.488-0.793-0.735-1.667-0.735c-1.286,0-3.734,0-7.344,0c-5.231,0.035-9.205,0.054-11.921,0.054
					c-4.682,0-8.358-0.608-11.031-1.822C83.39,58.235,82.837,57.857,82.406,57.429z"/>
				<path fill="#24ADE4" d="M76.51,61.094c-0.003,0.002-0.007,0.004-0.009,0.006c-1.716-2.506-1.731-5.277-1.359-7.263l2.902-7.484
					c0.264-0.9-0.363-1.053-0.697-1.185c0.331,0.206,0.399,0.656,0.349,0.79l-2.902,7.484c-0.373,1.986-0.357,4.757,1.359,7.263
					c0.002-0.002,0.005-0.004,0.008-0.006c0.274,0.387,0.592,0.771,0.931,1.15C76.884,61.599,76.689,61.346,76.51,61.094z"/>
				<path fill="#24ADE4" d="M72.68,44.718c-0.29-0.544-0.224-1.373,0.211-2.494c0.804-2.072,2.152-3.108,4.047-3.108h6.646
					c1.043,0,1.794,0.19,2.262,0.564c-0.384-0.637-1.251-0.958-2.611-0.958h-6.646c-1.895,0-3.243,1.037-4.046,3.109
					C71.981,43.275,72.036,44.231,72.68,44.718z"/>
			</g>
			
				<linearGradient id="SVGID_20_" gradientUnits="userSpaceOnUse" x1="124.8599" y1="20.0396" x2="118.649" y2="14.2428" gradientTransform="matrix(1 0 0.2867 1 -12.1292 0)">
				<stop  offset="0" style="stop-color:#1E459B"/>
				<stop  offset="1" style="stop-color:#24ADE4"/>
			</linearGradient>
			<path fill="url(#SVGID_20_)" d="M117.696,17.443l-0.327,0.855h-6.383l0.335-0.855c0.621-1.607,1.967-2.415,4.045-2.415
				C117.545,15.028,118.326,15.835,117.696,17.443z"/>
			
				<linearGradient id="SVGID_21_" gradientUnits="userSpaceOnUse" x1="117.0933" y1="24.3037" x2="114.1944" y2="28.2379" gradientTransform="matrix(1 0 0.2867 1 -12.1292 0)">
				<stop  offset="0" style="stop-color:#1E459B"/>
				<stop  offset="1" style="stop-color:#24ADE4"/>
			</linearGradient>
			<polygon fill="url(#SVGID_21_)" points="114.958,24.516 114.058,26.821 107.683,26.821 108.575,24.516 			"/>
			<path fill="#24ADE4" d="M111.839,17.624c0.621-1.607,1.967-2.415,4.045-2.415c0.504,0,0.925,0.048,1.278,0.134
				c-0.421-0.208-1.015-0.315-1.796-0.315c-2.078,0-3.424,0.808-4.045,2.415l-0.335,0.855h0.589L111.839,17.624z"/>
			<polygon fill="#24ADE4" points="108.575,24.516 107.683,26.821 108.148,26.821 109.04,24.516 			"/>
			<g>
				<linearGradient id="SVGID_22_" gradientUnits="userSpaceOnUse" x1="93.4863" y1="24.0146" x2="82.6354" y2="18.9548">
					<stop  offset="0" style="stop-color:#FFF34B;stop-opacity:0.8"/>
					<stop  offset="0.6931" style="stop-color:#FFF100;stop-opacity:0"/>
				</linearGradient>
				<path fill="url(#SVGID_22_)" d="M87.661,26.339c0.348,0.394,0.824,0.589,1.433,0.589c0.979-0.035,1.963-0.5,2.953-1.394
					c0.939-0.857,1.556-1.662,1.847-2.412c0.328-0.849-0.23-2.022-1.659-3.515c-0.012-0.013-0.023-0.025-0.035-0.038
					c-0.246-0.255-0.509-0.516-0.805-0.789c-2.066-1.857-3.511-2.787-4.332-2.787c-0.895,0-1.822,0.411-2.784,1.232
					c-0.984,0.787-1.635,1.591-1.954,2.412c-0.305,0.787-0.117,1.501,0.563,2.145C84.687,23.32,86.277,24.838,87.661,26.339z"/>
				<linearGradient id="SVGID_23_" gradientUnits="userSpaceOnUse" x1="123.2393" y1="45.1597" x2="90.9582" y2="30.1068">
					<stop  offset="0" style="stop-color:#FFF34B;stop-opacity:0.8"/>
					<stop  offset="0.6931" style="stop-color:#FFF100;stop-opacity:0"/>
				</linearGradient>
				<path fill="url(#SVGID_23_)" d="M130.391,18.478c-0.009-0.004-0.021-0.005-0.029-0.009c-0.134-0.053-0.279-0.098-0.446-0.125
					c-0.179-0.03-0.377-0.046-0.595-0.046h-11.951l0.327-0.855c0.41-1.046,0.211-1.748-0.571-2.114
					c-0.1-0.047-0.207-0.09-0.325-0.126c-0.071-0.021-0.152-0.037-0.23-0.055c-0.104-0.023-0.215-0.044-0.332-0.061
					c-0.071-0.01-0.142-0.02-0.217-0.027c-0.204-0.02-0.418-0.033-0.655-0.033c-2.078,0-3.424,0.808-4.045,2.415l-0.335,0.855
					h-12.06c-1.788,0-3.068,1.003-3.844,3.003c-0.09,0.233-0.159,0.449-0.218,0.657c-0.02,0.069-0.037,0.136-0.053,0.202
					c-0.033,0.138-0.059,0.268-0.077,0.393c-0.01,0.067-0.024,0.137-0.03,0.2c-0.013,0.145-0.013,0.279-0.004,0.406
					c0.006,0.092,0.023,0.176,0.041,0.259c0.008,0.038,0.018,0.075,0.029,0.111c0.084,0.289,0.247,0.512,0.487,0.672
					c0.001,0.001,0.003,0.003,0.004,0.004v-0.001c0.301,0.199,0.708,0.312,1.253,0.312h12.061l-0.893,2.306h-9.809
					c-2.502,0-4.29,1.396-5.373,4.179l-3.185,8.203c-0.122,0.313-0.213,0.604-0.29,0.882c-0.017,0.06-0.034,0.121-0.049,0.178
					c-0.063,0.257-0.108,0.499-0.132,0.725c-0.006,0.057-0.008,0.11-0.011,0.165c-0.012,0.194-0.01,0.377,0.009,0.546
					c0.004,0.041,0.006,0.083,0.013,0.123c0.028,0.169,0.078,0.322,0.141,0.465c0.022,0.051,0.045,0.102,0.071,0.15
					c0.069,0.123,0.147,0.238,0.245,0.339c-0.002-0.006-0.002-0.013-0.004-0.019c0.427,0.448,1.126,0.682,2.123,0.682h8.359
					c-3.308,2.25-8.041,4.556-14.21,6.916c-1.726,0.682-2.79,1.537-3.191,2.571c-0.111,0.287-0.198,0.555-0.267,0.807
					c-0.028,0.101-0.04,0.189-0.061,0.284c-0.031,0.143-0.064,0.287-0.08,0.418c-0.014,0.108-0.013,0.205-0.017,0.305
					c-0.003,0.101-0.007,0.201,0,0.293c0.008,0.102,0.027,0.195,0.047,0.287c0.016,0.072,0.033,0.143,0.057,0.208
					c0.033,0.091,0.075,0.175,0.123,0.254c0.03,0.049,0.063,0.096,0.099,0.14c0.062,0.077,0.13,0.149,0.209,0.212
					c0.038,0.03,0.082,0.056,0.124,0.083c0.095,0.062,0.194,0.119,0.309,0.163c0.038,0.015,0.083,0.024,0.123,0.037
					c0.134,0.043,0.273,0.083,0.433,0.106c0.001,0,0.002,0,0.003,0c0,0-0.001,0-0.001,0c0.185,0.027,0.377,0.048,0.596,0.048
					c1.177,0,3.51-0.808,6.992-2.415c3.476-1.607,6.018-3.05,7.625-4.336h0.008l-0.596,1.529l-2.023,5.222
					c-0.093,0.237-0.155,0.456-0.197,0.661c-0.006,0.032-0.005,0.061-0.011,0.092c-0.029,0.175-0.042,0.338-0.032,0.488
					c0.001,0.017,0.006,0.033,0.007,0.049c0.015,0.16,0.054,0.306,0.114,0.437c0.002,0.003,0.004,0.007,0.006,0.011
					c0.279,0.586,1.004,0.889,2.206,0.889c2.172,0,3.606-0.878,4.281-2.627l2.667-6.861c0.788,1.356,2.373,2.862,4.741,4.5
					c2.361,1.647,4.079,2.47,5.153,2.47c2.083-0.039,3.596-1.27,4.538-3.701c0.49-1.247,0.194-2.109-0.879-2.572
					c-4.28-1.858-7.416-4.179-9.408-6.971h8.357c2.572,0,4.411-1.412,5.507-4.235L126.321,31c0.493-1.266,0.587-2.229,0.323-2.921
					c0.009,0.009,0.022,0.015,0.031,0.024c-0.012-0.033-0.038-0.055-0.052-0.087c-0.053-0.126-0.125-0.238-0.204-0.344
					c-0.046-0.06-0.088-0.123-0.142-0.176c-0.097-0.097-0.216-0.177-0.341-0.252c-0.066-0.04-0.125-0.086-0.198-0.121
					c-0.149-0.069-0.325-0.117-0.505-0.162c-0.078-0.02-0.143-0.048-0.226-0.063c-0.276-0.049-0.58-0.077-0.921-0.077h-10.029
					l0.9-2.306h11.949c1.787,0,3.096-1.074,3.932-3.215C131.426,19.786,131.274,18.846,130.391,18.478z M116.562,37.383h-6.649
					l0.359-0.933l1.392-3.568h6.643c0.269,0,0.447,0.054,0.577,0.136c0.065,0.055,0.128,0.124,0.167,0.217
					c0.004,0.014,0.013,0.025,0.015,0.041c0.014,0.046,0.005,0.104-0.001,0.16c-0.007,0.058-0.017,0.117-0.039,0.185l-1.158,3.008
					C117.674,37.133,117.235,37.383,116.562,37.383z M96.429,36.631l1.146-2.948c0.208-0.534,0.61-0.8,1.222-0.8h6.484l-0.992,2.556
					l-0.752,1.944h-6.484c-0.152,0-0.279-0.016-0.381-0.047c-0.01-0.003-0.015-0.009-0.023-0.013
					c-0.062-0.022-0.104-0.055-0.146-0.089c-0.033-0.029-0.059-0.057-0.077-0.079C96.346,37.031,96.34,36.86,96.429,36.631z"/>
				<linearGradient id="SVGID_24_" gradientUnits="userSpaceOnUse" x1="88.9775" y1="34.1313" x2="78.0735" y2="29.0467">
					<stop  offset="0" style="stop-color:#FFF34B;stop-opacity:0.8"/>
					<stop  offset="0.6931" style="stop-color:#FFF100;stop-opacity:0"/>
				</linearGradient>
				<path fill="url(#SVGID_24_)" d="M77.617,30.806c0.017,0.106,0.065,0.196,0.107,0.29c0.021,0.046,0.027,0.101,0.055,0.144
					c0.054,0.084,0.137,0.152,0.214,0.224c0.04,0.037,0.063,0.081,0.109,0.114c-0.001-0.002-0.001-0.004-0.002-0.006
					c0.008,0.006,0.012,0.015,0.021,0.021c2.006,1.644,3.691,3.288,5.056,4.932c0.269,0.322,0.706,0.483,1.313,0.483
					c0.951,0.035,1.915-0.375,2.891-1.233c1.024-0.893,1.684-1.715,1.975-2.466c0.275-0.709-0.076-1.647-1.028-2.806
					c0.001,0.001,0.003,0.003,0.005,0.005c-0.002-0.003-0.006-0.006-0.008-0.009c-0.182-0.221-0.384-0.449-0.61-0.687
					c-0.02-0.021-0.038-0.042-0.059-0.063c-0.244-0.252-0.505-0.512-0.798-0.782c-2.038-1.93-3.487-2.895-4.345-2.895
					c-0.894,0-1.814,0.394-2.763,1.179c-0.97,0.75-1.621,1.555-1.953,2.412c-0.086,0.221-0.144,0.427-0.173,0.618
					c-0.018,0.116-0.006,0.216-0.004,0.321C77.62,30.668,77.606,30.743,77.617,30.806z"/>
				<linearGradient id="SVGID_25_" gradientUnits="userSpaceOnUse" x1="112.498" y1="70.415" x2="68.7147" y2="49.9985">
					<stop  offset="0" style="stop-color:#FFF34B;stop-opacity:0.8"/>
					<stop  offset="0.6931" style="stop-color:#FFF100;stop-opacity:0"/>
				</linearGradient>
				<path fill="url(#SVGID_25_)" d="M116.038,61.04c0,0-0.001-0.001-0.001-0.001c-0.12-0.243-0.316-0.427-0.594-0.548
					c-0.017-0.007-0.039-0.01-0.056-0.017c-0.127-0.05-0.262-0.095-0.419-0.122c-0.179-0.031-0.378-0.047-0.598-0.047
					c-1.286,0-3.734,0-7.344,0c-5.231,0.035-9.205,0.054-11.921,0.054c-4.682,0-8.358-0.608-11.031-1.822
					c-0.34-0.149-0.647-0.318-0.924-0.502c-0.058-0.039-0.1-0.084-0.155-0.125c-0.209-0.151-0.412-0.305-0.582-0.474
					c-1.267-1.251-1.491-2.935-0.923-4.401l4.261-10.989c0.403-1.04,0.418-1.826,0.073-2.377c0.006,0.005,0.015,0.008,0.021,0.013
					c-0.008-0.014-0.023-0.022-0.032-0.036c-0.072-0.11-0.166-0.206-0.268-0.296c-0.04-0.035-0.072-0.075-0.116-0.107
					c-0.114-0.083-0.252-0.149-0.396-0.212c-0.056-0.024-0.103-0.055-0.163-0.077c-0.16-0.056-0.347-0.095-0.539-0.13
					c-0.067-0.013-0.123-0.033-0.194-0.042c-0.273-0.038-0.572-0.059-0.902-0.059h-6.646c-1.895,0-3.243,1.037-4.046,3.109
					c-0.092,0.238-0.162,0.458-0.221,0.668c-0.018,0.063-0.034,0.125-0.049,0.187c-0.04,0.165-0.069,0.321-0.088,0.469
					c-0.011,0.085-0.015,0.165-0.019,0.245c-0.004,0.103-0.005,0.203,0.002,0.296c0.006,0.083,0.017,0.163,0.032,0.239
					c0.01,0.046,0.025,0.089,0.039,0.133c0.046,0.156,0.115,0.293,0.206,0.414c0.011,0.014,0.021,0.03,0.032,0.043
					c0.06,0.071,0.126,0.137,0.203,0.194l0,0v0c0.327,0.248,0.797,0.383,1.436,0.383h2.52c0.356,0,0.601,0.056,0.788,0.14
					c0.256,0.224,0.318,0.597,0.272,0.718l-2.902,7.484l-0.153,0.396c-0.929,2.395-3.854,4.824-8.776,7.29
					c-0.896,0.464-1.53,1.179-1.903,2.144c-0.083,0.212-0.142,0.422-0.183,0.628c-0.029,0.142-0.037,0.28-0.048,0.418
					c-0.003,0.056-0.014,0.112-0.014,0.167c-0.004,0.178,0.012,0.353,0.038,0.526c0.001,0.009,0.002,0.019,0.003,0.028
					c0.048,0.292,0.122,0.579,0.257,0.858c0.445,0.786,1.15,1.18,2.116,1.18c0.857,0,2.399-0.751,4.625-2.252
					c2.174-1.466,3.938-2.812,5.304-4.039v0c0.029-0.027,0.065-0.056,0.095-0.083c0.002-0.002,0.005-0.004,0.008-0.006
					c0.145,0.204,0.303,0.407,0.469,0.61c1.544,1.933,3.878,3.773,7.469,4.356c3.954,0.679,11.576,1.019,22.869,1.019
					c4.216,0,6.618-0.251,7.206-0.75c0.6-0.536,1.129-1.394,1.586-2.573C116.199,62.319,116.289,61.548,116.038,61.04L116.038,61.04
					z"/>
			</g>
			
				<linearGradient id="SVGID_26_" gradientUnits="userSpaceOnUse" x1="170.6172" y1="21.4824" x2="171.8111" y2="14.7114" gradientTransform="matrix(1 0 0.2867 1 -12.1292 0)">
				<stop  offset="0" style="stop-color:#1E459B"/>
				<stop  offset="1" style="stop-color:#24ADE4"/>
			</linearGradient>
			<path fill="url(#SVGID_26_)" d="M168.323,18.353l-0.915,2.36h-7.348l0.915-2.36c0.837-2.141,2.466-3.215,4.896-3.215
				C168.334,15.138,169.151,16.211,168.323,18.353z"/>
			<path fill="#24ADE4" d="M161.427,18.726c0.838-2.141,2.466-3.215,4.896-3.215c0.87,0,1.524,0.142,1.984,0.409
				c-0.416-0.519-1.225-0.782-2.436-0.782c-2.431,0-4.06,1.074-4.896,3.215l-0.915,2.36h0.597L161.427,18.726z"/>
			
				<linearGradient id="SVGID_27_" gradientUnits="userSpaceOnUse" x1="178.4268" y1="35.6938" x2="153.0305" y2="10.0307" gradientTransform="matrix(1 0 0.2867 1 -12.1292 0)">
				<stop  offset="0" style="stop-color:#1E459B"/>
				<stop  offset="1" style="stop-color:#24ADE4"/>
			</linearGradient>
			<path fill="url(#SVGID_27_)" d="M187.484,24.359c-0.909,2.353-2.421,3.536-4.53,3.536h-44.758c-2.008,0-2.541-1.2-1.61-3.592
				c0.93-2.391,2.374-3.591,4.342-3.591h44.759C187.827,20.713,188.427,21.928,187.484,24.359z"/>
			<path fill="#24ADE4" d="M137.286,24.687c0.93-2.391,2.373-3.591,4.342-3.591h44.758c0.428,0,0.775,0.062,1.08,0.159
				c-0.367-0.359-0.957-0.542-1.779-0.542h-44.759c-1.968,0-3.412,1.2-4.342,3.591c-0.757,1.949-0.527,3.092,0.663,3.454
				C136.697,27.193,136.709,26.17,137.286,24.687z"/>
			
				<linearGradient id="SVGID_28_" gradientUnits="userSpaceOnUse" x1="156.2104" y1="41.3062" x2="126.4348" y2="34.9578" gradientTransform="matrix(1 0 0.2867 1 -12.1292 0)">
				<stop  offset="0" style="stop-color:#1E459B"/>
				<stop  offset="1" style="stop-color:#24ADE4"/>
			</linearGradient>
			<path fill="url(#SVGID_28_)" d="M154.855,30.946c-0.272,0.721-1.577,2.156-3.922,4.29c-0.32,0.306-0.677,0.619-1.064,0.964
				c-2.072,1.796-4.901,4.102-7.097,5.74c-0.142,0.11-0.284,0.212-0.42,0.313c-6.276,4.721-10.132,7.081-11.559,7.081
				c-0.934,0-1.646-0.432-2.134-1.286c-0.464-0.823-0.516-1.717-0.142-2.682c0.362-0.925,1.157-1.764,2.376-2.517
				c6.146-3.968,12.405-8.806,18.762-14.531c0.119-0.102,0.299-0.243,0.545-0.423h4.345
				C155.22,28.742,155.323,29.762,154.855,30.946z"/>
			<path fill="#24ADE4" d="M129.382,48.155c-0.464-0.823-0.516-1.718-0.143-2.682c0.362-0.926,1.157-1.765,2.376-2.518
				c6.146-3.968,12.405-8.806,18.762-14.53c0.12-0.102,0.304-0.35,0.55-0.53h-0.726c-0.246,0.18-0.426,0.321-0.545,0.423
				c-6.356,5.725-12.615,10.563-18.762,14.531c-1.219,0.753-2.014,1.592-2.376,2.517c-0.374,0.964-0.322,1.858,0.142,2.682
				c0.488,0.854,1.2,1.286,2.134,1.286l0,0C130.208,49.161,129.734,48.773,129.382,48.155z"/>
			
				<linearGradient id="SVGID_29_" gradientUnits="userSpaceOnUse" x1="169.5972" y1="47.083" x2="154.7443" y2="41.5455" gradientTransform="matrix(1 0 0.2867 1 -12.1292 0)">
				<stop  offset="0" style="stop-color:#1E459B"/>
				<stop  offset="1" style="stop-color:#24ADE4"/>
			</linearGradient>
			<path fill="url(#SVGID_29_)" d="M169.476,41.077c-4.979,5.473-9.203,9.363-12.676,11.692c-2.094-2.055-3.105-3.419-3.823-4.666
				c4.776-3.113,9.294-7.434,13.556-12.97C167.421,36.701,168.605,38.999,169.476,41.077z"/>
			
				<linearGradient id="SVGID_30_" gradientUnits="userSpaceOnUse" x1="142.8281" y1="65.125" x2="116.7944" y2="54.9807" gradientTransform="matrix(1 0 0.2867 1 -12.1292 0)">
				<stop  offset="0" style="stop-color:#1E459B"/>
				<stop  offset="1" style="stop-color:#24ADE4"/>
			</linearGradient>
			<path fill="url(#SVGID_30_)" d="M148.968,57.748c-4.506,2.501-9.676,4.681-15.51,6.54c-5.795,1.858-9.244,2.792-10.35,2.792
				c-1.004,0-1.665-0.447-2-1.341c-0.283-0.934-0.239-1.875,0.135-2.839c0.653-1.686,2.198-2.862,4.637-3.544
				c9.5-2.643,16.091-4.925,19.762-6.861C146.358,54.094,147.616,56.156,148.968,57.748z"/>
			<path fill="#24ADE4" d="M153.409,48.636c4.747-3.094,9.236-7.383,13.477-12.87c-0.122-0.222-0.24-0.434-0.354-0.633
				c-4.262,5.536-8.779,9.857-13.556,12.97c0.412,0.715,0.928,1.474,1.681,2.374C154.133,49.803,153.736,49.206,153.409,48.636z"/>
			<path fill="#24ADE4" d="M121.54,66.271c-0.283-0.933-0.239-1.875,0.136-2.839c0.653-1.686,2.198-2.862,4.637-3.544
				c9.39-2.613,15.933-4.871,19.628-6.793c-0.1-0.201-0.213-0.412-0.299-0.602c-3.671,1.937-10.262,4.218-19.762,6.861
				c-2.438,0.682-3.983,1.858-4.637,3.544c-0.374,0.964-0.418,1.905-0.135,2.839c0.142,0.379,0.355,0.659,0.615,0.878
				C121.661,66.504,121.59,66.403,121.54,66.271z"/>
			
				<linearGradient id="SVGID_31_" gradientUnits="userSpaceOnUse" x1="173.0591" y1="25.1621" x2="173.6801" y2="46.7958" gradientTransform="matrix(1 0 0.2867 1 -12.1292 0)">
				<stop  offset="0" style="stop-color:#1E459B"/>
				<stop  offset="1" style="stop-color:#24ADE4"/>
			</linearGradient>
			<path fill="url(#SVGID_31_)" d="M179.435,45.264c-0.374,0.965-1.117,1.819-2.234,2.572c-1.128,0.714-2.18,1.066-3.144,1.066
				c-0.965,0-1.707-0.619-2.224-1.874c-0.82-2.18-1.535-4.015-2.171-5.521c-0.057-0.141-0.112-0.283-0.187-0.432
				c-0.87-2.078-2.055-4.375-2.943-5.944c-0.033-0.063-0.065-0.117-0.1-0.181c-0.168-0.313-0.43-0.736-0.787-1.27
				c-0.748-1.105-0.977-2.039-0.688-2.784c0.36-0.933,1.13-1.803,2.306-2.627c0.232-0.172,0.432-0.298,0.582-0.376h4.116
				c0.024,0.031,0.069,0.102,0.132,0.212c0.651,0.713,2.126,3.505,4.43,8.366C178.847,41.328,179.821,44.261,179.435,45.264z"/>
			<path fill="#24ADE4" d="M167.187,35.583c-0.034-0.066-0.066-0.125-0.103-0.191c-0.173-0.333-0.443-0.783-0.81-1.349
				c-0.768-1.175-1.014-2.166-0.737-2.957c0.343-0.991,1.097-1.916,2.257-2.791c0.23-0.183,0.427-0.316,0.576-0.399h-0.525
				c-0.15,0.078-0.35,0.204-0.582,0.376c-1.176,0.824-1.945,1.694-2.306,2.627c-0.288,0.745-0.06,1.678,0.688,2.784
				c0.357,0.533,0.619,0.957,0.787,1.27c0.034,0.063,0.066,0.118,0.1,0.181c0.708,1.249,1.601,2.959,2.374,4.653
				C168.345,38.237,167.816,36.727,167.187,35.583z"/>
			<linearGradient id="SVGID_32_" gradientUnits="userSpaceOnUse" x1="178.6064" y1="51.729" x2="129.9967" y2="35.9347">
				<stop  offset="0" style="stop-color:#FFF34B;stop-opacity:0.8"/>
				<stop  offset="0.6931" style="stop-color:#FFF100;stop-opacity:0"/>
			</linearGradient>
			<path fill="url(#SVGID_32_)" d="M187.309,21.138c-0.072-0.054-0.146-0.106-0.231-0.149c-0.063-0.032-0.131-0.059-0.202-0.085
				c-0.103-0.039-0.214-0.07-0.333-0.097c-0.067-0.015-0.131-0.032-0.204-0.043c-0.2-0.031-0.413-0.051-0.652-0.051h-18.278
				l0.915-2.36c0.421-1.089,0.412-1.898-0.018-2.434c0,0,0.001,0,0.001,0c-0.007-0.009-0.02-0.015-0.028-0.024
				c-0.207-0.246-0.499-0.435-0.891-0.561c-0.018-0.005-0.041-0.007-0.059-0.013c-0.189-0.057-0.392-0.104-0.623-0.134
				c-0.253-0.033-0.532-0.05-0.835-0.05c-2.431,0-4.06,1.074-4.896,3.215l-0.915,2.36h-19.133c-1.968,0-3.412,1.2-4.342,3.591
				c-0.105,0.27-0.187,0.521-0.253,0.76c-0.028,0.099-0.044,0.188-0.066,0.282c-0.029,0.13-0.057,0.258-0.074,0.377
				c-0.017,0.109-0.025,0.213-0.031,0.314c-0.004,0.083-0.005,0.163-0.002,0.24c0.003,0.111,0.009,0.221,0.026,0.32
				c0.006,0.036,0.018,0.068,0.027,0.103c0.184,0.787,0.833,1.195,1.984,1.195h12.005c-0.246,0.18-0.426,0.321-0.545,0.423
				c-6.356,5.725-12.615,10.563-18.762,14.531c-1.219,0.753-2.014,1.592-2.376,2.517c-0.374,0.964-0.322,1.858,0.142,2.682
				c0.488,0.854,1.2,1.286,2.134,1.286c1.427,0,5.282-2.36,11.559-7.081c0.136-0.102,0.278-0.204,0.42-0.313
				c0.602,4.148,1.542,7.622,2.803,10.405c0.021,0.047,0.043,0.094,0.066,0.149c-3.671,1.937-10.262,4.218-19.762,6.861
				c-2.438,0.682-3.983,1.858-4.637,3.544c-0.374,0.964-0.418,1.905-0.135,2.839c0.072,0.193,0.164,0.359,0.27,0.506
				c0.097,0.143,0.214,0.259,0.339,0.365c0.002,0.002,0.004,0.005,0.007,0.007c0,0,0-0.001-0.001-0.002
				c0.354,0.298,0.806,0.465,1.386,0.465c1.105,0,4.555-0.933,10.35-2.792c5.834-1.859,11.004-4.039,15.51-6.54
				c0.049,0.063,0.104,0.117,0.152,0.18c2.026,2.36,5.162,4.461,9.394,6.312c4.377,1.89,7.439,2.839,9.188,2.839
				c2.431,0,4.184-1.38,5.245-4.133c0.79-2.03,0.501-3.176-0.865-3.427c-2.529-0.5-4.795-1.104-6.805-1.81
				c-0.129-0.045-0.25-0.093-0.376-0.139c-0.478-0.173-0.94-0.354-1.387-0.539c-0.147-0.061-0.297-0.121-0.441-0.184
				c-0.514-0.223-1.007-0.453-1.479-0.692c-0.118-0.06-0.23-0.121-0.345-0.182c-0.419-0.221-0.823-0.448-1.208-0.683
				c-0.074-0.045-0.152-0.088-0.225-0.134c-0.432-0.271-0.837-0.552-1.224-0.841c-0.089-0.066-0.176-0.134-0.262-0.201
				c-0.386-0.3-0.757-0.605-1.095-0.924c-0.15-0.141-0.293-0.282-0.436-0.423c3.473-2.329,7.697-6.219,12.676-11.692
				c0.074,0.149,0.13,0.291,0.187,0.432c0.636,1.505,1.351,3.34,2.171,5.521c0.517,1.254,1.259,1.874,2.224,1.874
				c0.964,0,2.016-0.353,3.144-1.066c1.117-0.752,1.86-1.607,2.234-2.572c0.387-1.003-0.588-3.936-2.912-8.791
				c-2.304-4.861-3.778-7.653-4.43-8.366c-0.063-0.11-0.107-0.181-0.132-0.212h10.993c2.109,0,3.621-1.184,4.53-3.536
				C188.109,22.747,188.041,21.681,187.309,21.138z M167.263,28.271c-1.176,0.824-1.945,1.694-2.306,2.627
				c-0.288,0.745-0.06,1.678,0.688,2.784c0.357,0.533,0.619,0.957,0.787,1.27c0.034,0.063,0.066,0.118,0.1,0.181
				c-4.262,5.536-8.779,9.857-13.556,12.97c-0.092-0.157-0.175-0.306-0.259-0.462c-1.823-3.325-2.767-7.136-2.849-11.441
				c0.388-0.345,0.744-0.658,1.064-0.964c2.345-2.133,3.649-3.568,3.922-4.29c0.468-1.184,0.364-2.204-0.31-3.05h13.299
				C167.694,27.974,167.495,28.1,167.263,28.271z"/>
			
				<linearGradient id="SVGID_33_" gradientUnits="userSpaceOnUse" x1="211.7227" y1="28.5703" x2="205.7186" y2="17.9422" gradientTransform="matrix(1 0 0.2867 1 -12.1292 0)">
				<stop  offset="0" style="stop-color:#1E459B"/>
				<stop  offset="1" style="stop-color:#24ADE4"/>
			</linearGradient>
			<path fill="url(#SVGID_33_)" d="M213.606,18.517c-0.269,0.674-0.697,1.231-1.289,1.655c-0.064,0.078-0.161,0.149-0.298,0.22
				c-1.868,1.388-3.06,2.266-3.591,2.627l-2.659,6.861c-0.309,0.784-0.821,1.373-1.548,1.764h-4.769
				c-0.431-0.353-0.489-0.941-0.169-1.764l0.637-1.663c-0.604,0.354-2.118,1.09-4.545,2.195c-0.122,0.04-0.23,0.071-0.314,0.11
				c-0.439,0.212-0.84,0.321-1.192,0.321c-0.824,0-1.426-0.376-1.814-1.129c-0.37-0.714-0.355-1.568,0.031-2.572
				c0.455-1.176,1.238-1.999,2.353-2.462c5.679-2.399,10.589-5.293,14.729-8.688c0.787-0.643,1.573-0.964,2.357-0.964
				C213.814,15.028,214.508,16.188,213.606,18.517z"/>
			<g>
				<path fill="#24ADE4" d="M199.71,28.768l-0.426,1.112c-0.284,0.73-0.253,1.265,0.055,1.625c0.017-0.238,0.064-0.497,0.183-0.798
					C199.521,30.706,199.858,29.074,199.71,28.768z"/>
				<path fill="#24ADE4" d="M192.06,29.723c-0.063-0.526,0.014-1.105,0.264-1.754c0.454-1.176,1.238-2,2.352-2.462
					c5.68-2.399,10.59-5.293,14.729-8.688c0.787-0.644,1.574-0.964,2.357-0.964c1.117,0,1.847,0.281,2.205,0.833
					c-0.067-1.098-0.868-1.659-2.441-1.659c-0.784,0-1.57,0.321-2.357,0.964c-4.14,3.396-9.05,6.289-14.729,8.688
					c-1.114,0.463-1.897,1.286-2.353,2.462c-0.387,1.004-0.401,1.858-0.031,2.572C192.057,29.718,192.059,29.72,192.06,29.723z"/>
			</g>
			
				<linearGradient id="SVGID_34_" gradientUnits="userSpaceOnUse" x1="242.0859" y1="37.043" x2="223.557" y2="18.6867" gradientTransform="matrix(1 0 0.2867 1 -12.1292 0)">
				<stop  offset="0" style="stop-color:#1E459B"/>
				<stop  offset="1" style="stop-color:#24ADE4"/>
			</linearGradient>
			<path fill="url(#SVGID_34_)" d="M240.56,27.519c-0.956,0.411-1.783,0.157-1.783,0.157c-1.013,0.322-1.754,1.075-2.205,2.259
				c-0.903,2.321-1.551,3.481-1.942,3.481c-1.813,0-4.104-2.288-6.883-6.866c0.006,0.009,0.012,0.02,0.017,0.029
				c-0.005-0.009-0.011-0.021-0.017-0.029c-0.001-0.001,0.015-0.004,0.019-0.006c-1.13-1.746-1.748-4.725-1.959-5.776
				c-0.016,0-0.037,0-0.05,0c-0.244-0.933-0.509-2.345-0.767-4.234c-0.128-0.964-0.801-1.451-2.017-1.451
				c-2.431,0-4.006,0.933-4.722,2.784c-0.268,0.692-0.214,1.733,0.139,3.104c0.44,1.686,0.966,4.975,1.818,6.848
				c0.167,0.364,0.367,0.777,0.612,1.254c0.088,0.142,0.15,0.251,0.194,0.322c0.361,0.823,0.82,1.576,1.383,2.25h-0.018
				c0.637,0.943,5.16,7.382,10.945,8.578c0.239,0.04,0.518,0.055,0.84,0.055c2.964,0,5.724-3.286,8.274-9.865
				C243.142,28.594,242.52,27.629,240.56,27.519z"/>
			<g>
				<path fill="#24ADE4" d="M235.009,33.83c0.393,0,1.04-1.161,1.942-3.481c0.452-1.184,1.192-1.937,2.206-2.259
					c0,0,0.783-0.106,1.783-0.157c0.701,0.04,1.224,0.193,1.582,0.452c-0.298-0.517-0.947-0.808-1.963-0.866
					c-0.956,0.411-1.783,0.157-1.783,0.157c-1.013,0.322-1.754,1.075-2.205,2.259c-0.903,2.321-1.551,3.481-1.942,3.481
					c-0.966,0-2.068-0.656-3.307-1.954C232.716,33.037,233.946,33.83,235.009,33.83z"/>
				<path fill="#24ADE4" d="M224.936,34.823c-1.168-1.312-1.938-2.416-2.175-2.765h0.017c-0.562-0.674-1.021-1.427-1.382-2.25
					c-0.044-0.071-0.107-0.181-0.194-0.322c-0.245-0.477-0.446-0.89-0.612-1.254c-0.854-1.873-1.379-5.162-1.819-6.848
					c-0.353-1.371-0.406-2.411-0.139-3.104c0.716-1.851,2.291-2.784,4.722-2.784c0.603,0,1.071,0.121,1.406,0.358
					c-0.309-0.512-0.901-0.772-1.786-0.772c-2.431,0-4.006,0.933-4.722,2.784c-0.268,0.692-0.214,1.733,0.139,3.104
					c0.44,1.686,0.966,4.975,1.818,6.848c0.167,0.364,0.367,0.777,0.612,1.254c0.088,0.142,0.15,0.251,0.194,0.322
					c0.361,0.823,0.82,1.576,1.383,2.25h-0.018C222.641,32.029,223.558,33.335,224.936,34.823z"/>
			</g>
			
				<linearGradient id="SVGID_35_" gradientUnits="userSpaceOnUse" x1="246.9014" y1="26.6504" x2="242.3642" y2="17.0408" gradientTransform="matrix(1 0 0.2867 1 -12.1292 0)">
				<stop  offset="0" style="stop-color:#1E459B"/>
				<stop  offset="1" style="stop-color:#24ADE4"/>
			</linearGradient>
			<path fill="url(#SVGID_35_)" d="M241.844,19.639h-0.054c-1.763-2.533-3.044-3.803-3.828-3.803s-1.637,0.337-2.539,1.019
				c-0.955,0.714-1.588,1.459-1.896,2.25c-0.192,0.502-0.212,0.926-0.069,1.287c0.262,0.913,1.798,2.073,2.467,3.324
				c0.147,0.353,0.524,1.035,1.139,2.031c0.724,1.184,1.293,1.827,1.713,1.929c0,0,0.827,0.254,1.783-0.157h-0.001
				c1.577-0.572,2.61-1.481,3.098-2.736C244.084,23.677,243.482,21.96,241.844,19.639z"/>
			<g>
				<path fill="#24ADE4" d="M233.746,19.686c0.308-0.792,0.94-1.536,1.896-2.25c0.902-0.682,1.755-1.019,2.538-1.019
					c0.785,0,2.066,1.271,3.828,3.804h0.055c0.69,0.978,1.186,1.841,1.508,2.604c-0.286-0.892-0.854-1.95-1.727-3.186h-0.054
					c-1.763-2.533-3.044-3.803-3.828-3.803s-1.637,0.337-2.539,1.019c-0.955,0.714-1.588,1.459-1.896,2.25
					c-0.192,0.502-0.212,0.926-0.069,1.287c0.033,0.117,0.088,0.238,0.159,0.363C233.554,20.443,233.591,20.091,233.746,19.686z"/>
			</g>
			
				<linearGradient id="SVGID_36_" gradientUnits="userSpaceOnUse" x1="214.0269" y1="60.9976" x2="201.5363" y2="32.1517" gradientTransform="matrix(1 0 0.2867 1 -12.1292 0)">
				<stop  offset="0" style="stop-color:#1E459B"/>
				<stop  offset="1" style="stop-color:#24ADE4"/>
			</linearGradient>
			<path fill="url(#SVGID_36_)" d="M227.92,54.156l5.405-13.935c-5.785-1.196-10.309-7.635-10.945-8.578h-22.927
				c-2.425,0.181-4.101,1.451-5.015,3.811l-7.008,18.059c-1.02,2.651-0.234,3.968,2.376,3.968h2.46h0.811h6.916h11.629h12.396
				C225.86,57.232,227.164,56.128,227.92,54.156z M199.523,38.505c0.296-0.745,0.847-1.122,1.67-1.122h25.782
				c0.683,0,0.851,0.424,0.526,1.287H199.57C199.5,38.67,199.483,38.614,199.523,38.505z M197.626,43.813h27.877l-0.518,1.341
				H197.11L197.626,43.813z M195.579,51.851c-0.745,0-0.937-0.479-0.563-1.443h27.931c-0.374,0.964-0.816,1.443-1.311,1.443H195.579
				z"/>
			<g>
				<path fill="#24ADE4" d="M196.34,52.442h26.058c0.494,0,0.55-2.034,0.55-2.034c-0.309,0.75-0.641,1.443-1.311,1.443h-25.985
					c0,0-0.189-0.006-0.389-0.046c-0.191-0.039-0.36-0.269-0.36-0.269C194.923,51.93,195.446,52.442,196.34,52.442z"/>
				<polygon fill="#24ADE4" points="225.503,43.813 224.985,45.154 197.11,45.154 197.782,45.745 225.231,45.745 				"/>
				<path fill="#24ADE4" d="M188.19,54.104l7.008-18.058c0.915-2.36,2.59-3.63,5.016-3.811h22.582
					c-0.195-0.269-0.336-0.473-0.416-0.591h-22.927c-2.425,0.181-4.101,1.451-5.015,3.811l-7.008,18.059
					c-0.744,1.935-0.522,3.156,0.666,3.676C187.622,56.531,187.651,55.506,188.19,54.104z"/>
				<path fill="#24ADE4" d="M227.936,39.261c0.476-1.049-0.428-1.754-0.428-1.754c0.223,0.229,0.18,0.765-0.006,1.163H199.52
					c-0.089,0.127,0.668,0.591,0.738,0.591H227.936z"/>
			</g>
			<linearGradient id="SVGID_37_" gradientUnits="userSpaceOnUse" x1="236.9658" y1="49.5806" x2="186.1926" y2="35.0216">
				<stop  offset="0" style="stop-color:#FFF34B;stop-opacity:0.8"/>
				<stop  offset="0.6931" style="stop-color:#FFF100;stop-opacity:0"/>
			</linearGradient>
			<path fill="url(#SVGID_37_)" d="M243.656,24.783c0.313-0.809,0.069-1.947-0.722-3.406c-0.003-0.007-0.006-0.013-0.01-0.02
				c-0.129-0.237-0.274-0.483-0.433-0.738c-0.021-0.034-0.038-0.065-0.06-0.099c-0.179-0.284-0.374-0.576-0.589-0.881h-0.054
				c-1.763-2.533-3.044-3.803-3.828-3.803s-1.637,0.337-2.539,1.019c-0.955,0.714-1.588,1.459-1.896,2.25
				c-0.192,0.502-0.212,0.926-0.069,1.287c-1.172,0.07-3.005,0.157-5.515,0.266c-1.168,0.066-1.874,0.105-2.138,0.109
				c-0.016,0-0.037,0-0.05,0c-0.244-0.933-0.509-2.345-0.767-4.234c-0.036-0.268-0.123-0.49-0.243-0.684
				c0.003,0.002,0.009,0.003,0.012,0.005c-0.086-0.143-0.201-0.262-0.332-0.365c-0.047-0.037-0.104-0.065-0.157-0.096
				c-0.115-0.07-0.243-0.129-0.386-0.174c-0.063-0.02-0.124-0.041-0.192-0.056c-0.216-0.048-0.449-0.081-0.72-0.081
				c-2.431,0-4.006,0.933-4.722,2.784c-0.268,0.692-0.214,1.733,0.139,3.104c0.016,0.059,0.021,0.107,0.039,0.167
				c-0.727,0.039-1.898,0.109-3.514,0.219c-1.353,0.07-2.205,0.102-2.566,0.102c-1.678,0.11-2.846,0.988-3.48,2.627
				c-0.107,0.278-0.193,0.537-0.259,0.779c-0.012,0.043-0.015,0.078-0.024,0.12c-0.049,0.198-0.09,0.39-0.11,0.563
				c-0.001,0.013,0,0.022-0.001,0.035c-0.123,1.178,0.438,1.772,1.7,1.772c0.353,0,1.955-0.102,4.785-0.321
				c2.11-0.138,3.698-0.224,4.747-0.264c0.027-0.001,0.078-0.003,0.078-0.003s0.077,0.199,0.051,0.103v-0.001
				c-0.008-0.028-0.023-0.078-0.053-0.17c-0.034-0.104-0.065-0.217-0.099-0.325c0.161,0.528,0.333,1.024,0.524,1.444
				c0.167,0.364,0.367,0.777,0.612,1.254c0.088,0.142,0.15,0.251,0.194,0.322c0.361,0.823,0.82,1.576,1.383,2.25h-0.018h-18.158
				c0.727-0.392,1.239-0.98,1.548-1.764l2.659-6.861c0.531-0.361,1.723-1.239,3.591-2.627c0.137-0.07,0.233-0.142,0.298-0.22
				c0.592-0.423,1.021-0.98,1.289-1.655c0.282-0.729,0.39-1.33,0.359-1.831l0,0c0-0.001,0-0.003-0.001-0.004
				c-0.024-0.385-0.141-0.703-0.351-0.952c-0.024-0.029-0.049-0.058-0.075-0.085c-0.064-0.065-0.131-0.128-0.209-0.183
				c-0.081-0.058-0.174-0.106-0.271-0.152c-0.082-0.038-0.169-0.072-0.263-0.103c-0.12-0.04-0.249-0.074-0.389-0.1
				c-0.064-0.012-0.13-0.023-0.198-0.033c-0.211-0.028-0.435-0.047-0.685-0.047c-0.784,0-1.57,0.321-2.357,0.964
				c-4.14,3.396-9.05,6.289-14.729,8.688c-1.114,0.463-1.897,1.286-2.353,2.462c-0.387,1.004-0.401,1.858-0.031,2.572
				c0.002,0.003,0.004,0.005,0.005,0.008v0c0.389,0.747,0.988,1.122,1.81,1.122c0.353,0,0.753-0.109,1.192-0.321
				c0.084-0.039,0.192-0.07,0.314-0.11c2.427-1.105,3.941-1.842,4.545-2.195l-0.211,0.551l0,0l-0.426,1.112
				c-0.074,0.19-0.124,0.365-0.156,0.529c-0.023,0.114-0.024,0.214-0.028,0.316c-0.001,0.04-0.009,0.083-0.007,0.121
				c0.004,0.125,0.03,0.236,0.065,0.341c0.002,0.006,0.003,0.013,0.005,0.02c0.061,0.168,0.147,0.32,0.29,0.438
				c-2.425,0.181-4.101,1.451-5.015,3.811l-7.008,18.059c-0.114,0.295-0.197,0.569-0.266,0.832
				c-0.021,0.079-0.036,0.154-0.053,0.229c-0.041,0.187-0.068,0.364-0.085,0.533c-0.006,0.068-0.017,0.139-0.019,0.204
				c-0.008,0.21,0.001,0.408,0.036,0.587c0.01,0.051,0.03,0.094,0.043,0.143c0.034,0.126,0.078,0.246,0.135,0.355
				c0.032,0.061,0.067,0.118,0.105,0.173c0.063,0.09,0.138,0.172,0.219,0.249c0.046,0.043,0.086,0.091,0.138,0.13
				c0.122,0.091,0.259,0.172,0.413,0.24c-0.002-0.003-0.003-0.008-0.005-0.012c0.441,0.196,1.004,0.303,1.715,0.303h2.46h0.811
				c-2.752,1.286-6.926,2.345-12.531,3.168c-0.987,0.141-1.774,0.979-2.377,2.517c-0.119,0.308-0.216,0.595-0.294,0.865
				c-0.031,0.107-0.048,0.201-0.073,0.302c-0.037,0.151-0.077,0.304-0.101,0.442c-0.021,0.127-0.027,0.24-0.038,0.356
				c-0.008,0.093-0.02,0.188-0.02,0.274c-0.001,0.127,0.014,0.24,0.029,0.353c0.008,0.056,0.013,0.115,0.025,0.167
				c0.026,0.117,0.067,0.222,0.114,0.32c0.016,0.031,0.03,0.064,0.048,0.094c0.059,0.101,0.131,0.189,0.214,0.268
				c0.017,0.015,0.033,0.03,0.051,0.044c0.095,0.08,0.204,0.147,0.327,0.2c0.012,0.005,0.023,0.009,0.035,0.013
				c0.242,0.097,0.521,0.161,0.868,0.161c2.791,0,6.789-0.934,12.015-2.784c5.229-1.858,8.087-3.435,8.59-4.721
				c0.22-0.572,0.247-1.16,0.087-1.771l-0.053-0.267h11.629c-0.125,0.141-0.296,0.392-0.498,0.752
				c-0.022,0.032-0.05,0.071-0.102,0.11c-0.134,0.243-0.242,0.494-0.343,0.745c-0.567,1.466,0.194,2.54,2.294,3.215
				c4.666,1.615,8.459,3.113,11.385,4.509c0.268,0.141,0.563,0.212,0.884,0.212c2.18,0,3.791-1.357,4.845-4.078
				c0.463-1.176-0.487-2.25-2.826-3.215c-2.392-0.925-4.117-1.584-5.18-1.983c-0.281-0.103-0.533-0.228-0.662-0.267h2.599
				c1.843-0.249,3.146-1.353,3.902-3.325l5.405-13.935c0.239,0.04,0.518,0.055,0.84,0.055c2.964,0,5.724-3.286,8.274-9.865
				c0.52-1.345,0.31-2.22-0.626-2.631c-0.001,0-0.002-0.001-0.004-0.002c-0.151-0.066-0.324-0.119-0.514-0.161
				c-0.017-0.003-0.029-0.01-0.046-0.014c-0.208-0.042-0.437-0.072-0.689-0.086h-0.001
				C242.136,26.947,243.169,26.037,243.656,24.783z M230.192,26.343c2.482-0.149,3.975-0.416,4.489-0.808
				c0.507-0.392,0.92-1.004,1.243-1.819c0.147,0.353,0.524,1.035,1.139,2.031c0.724,1.184,1.293,1.827,1.713,1.929
				c-1.013,0.322-1.754,1.075-2.205,2.259c-0.903,2.321-1.551,3.481-1.942,3.481c-0.212,0-0.432-0.038-0.656-0.1
				c-0.023-0.006-0.045-0.009-0.068-0.016c-0.208-0.063-0.424-0.161-0.643-0.277c-0.045-0.024-0.09-0.045-0.135-0.071
				c-0.206-0.118-0.417-0.265-0.633-0.428c-0.065-0.049-0.129-0.098-0.196-0.152c-0.207-0.168-0.419-0.359-0.635-0.569
				c-0.077-0.074-0.154-0.151-0.232-0.231c-1.116-1.143-2.342-2.808-3.685-5.021c-0.001-0.001,0.015-0.004,0.019-0.006
				C227.854,26.501,229.151,26.373,230.192,26.343z M227.608,37.695c0.002,0.006,0.007,0.009,0.009,0.016
				c0.039,0.099,0.047,0.225,0.033,0.37c-0.002,0.023-0.007,0.046-0.01,0.069c-0.022,0.152-0.064,0.322-0.139,0.521H199.57
				c-0.07,0-0.087-0.056-0.047-0.165c0.296-0.745,0.847-1.122,1.67-1.122h25.782C227.311,37.383,227.519,37.488,227.608,37.695z
				 M218.621,21.95c-0.025-0.113-0.051-0.227-0.075-0.333C218.57,21.723,218.596,21.838,218.621,21.95z M218.894,23.197
				c-0.062-0.284-0.122-0.559-0.179-0.823C218.772,22.638,218.832,22.913,218.894,23.197z M219.415,25.421
				c0.058,0.223,0.118,0.444,0.18,0.659C219.533,25.865,219.473,25.645,219.415,25.421z M218.943,23.426
				c0.052,0.236,0.106,0.478,0.161,0.719C219.049,23.902,218.995,23.663,218.943,23.426z M219.152,24.354
				c0.068,0.294,0.139,0.59,0.213,0.882C219.291,24.944,219.22,24.649,219.152,24.354z M221.637,51.851h-25.985
				c0,0-0.044-0.001-0.108-0.007c-0.14-0.003-0.254-0.03-0.353-0.069c-0.042-0.019-0.081-0.04-0.117-0.068
				c-0.287-0.202-0.318-0.624-0.057-1.298h27.931C222.573,51.373,222.131,51.851,221.637,51.851z M224.985,45.154H197.11
				l0.516-1.341h27.877L224.985,45.154z"/>
		</g>
		<linearGradient id="SVGID_38_" gradientUnits="userSpaceOnUse" x1="60.3076" y1="50.3066" x2="19.8364" y2="29.6855">
			<stop  offset="0" style="stop-color:#FFF34B"/>
			<stop  offset="0.4603" style="stop-color:#FFF100;stop-opacity:0"/>
		</linearGradient>
		<path fill="url(#SVGID_38_)" d="M20.097,74.566c-1.043,0-2.042-0.326-2.89-0.941c-1.063-0.772-1.762-1.912-1.967-3.21
			c-0.195-1.231,0.075-2.464,0.763-3.496h-2.86c-2.713,0-4.921-2.208-4.921-4.921c0-2.713,2.208-4.92,4.921-4.92h21.146
			c4.55,0,11.844-3.281,15.694-8.583c0.2-0.274,0.373-0.533,0.531-0.783l0.097-0.158c0.142-0.233,0.238-0.397,0.323-0.553
			l0.113-0.213c0.078-0.15,0.144-0.288,0.204-0.42l0.084-0.185c0.064-0.15,0.118-0.293,0.166-0.429
			c0.027-0.078,0.132-0.438,0.132-0.438c0.018-0.071,0.032-0.145,0.045-0.214c0.008-0.048,0.015-0.087,0.02-0.121
			c-0.194-0.037-0.472-0.068-0.851-0.068H29.391c-4.568,0-8.106-1.902-9.795-5.219c-2.008-3.941-1.081-8.909,2.61-13.99
			c0.119-0.164,0.247-0.324,0.375-0.485l0.17-0.214c5.418-6.918,15.138-11.939,23.111-11.939h6.125l4.082-5.618
			c0.179-0.247,0.384-0.477,0.627-0.704c0.063-0.059,0.13-0.112,0.199-0.165c0.203-0.163,0.36-0.287,0.527-0.392
			c0.085-0.054,0.177-0.103,0.269-0.151c0.217-0.114,0.368-0.189,0.526-0.252c0.128-0.051,0.259-0.094,0.392-0.135
			c0.15-0.045,0.298-0.084,0.448-0.115c0.144-0.03,0.291-0.054,0.44-0.071c0.145-0.015,0.282-0.022,0.419-0.026l0.208-0.004
			c0.091,0,0.183,0.003,0.275,0.009c0.106,0.007,0.216,0.023,0.326,0.041c0.248,0.037,0.406,0.062,0.563,0.103
			c0.087,0.022,0.17,0.052,0.254,0.083c0.58,0.195,1.019,0.414,1.4,0.691c2.14,1.554,2.657,4.524,1.204,6.706h2.862
			c0.328,0,0.657,0.033,0.979,0.099c0.113,0.022,0.225,0.058,0.335,0.095l0.177,0.054c0.134,0.037,0.267,0.076,0.393,0.129
			c0.181,0.075,0.35,0.17,0.517,0.267c0.156,0.083,0.23,0.123,0.301,0.169c0.224,0.147,0.431,0.318,0.629,0.502
			c0.01,0.009,0.082,0.07,0.091,0.079c0.962,0.926,1.5,2.183,1.5,3.527c0,2.713-2.208,4.92-4.921,4.92H45.862
			c-4.549,0-11.843,3.281-15.694,8.583c-1.297,1.786-1.636,2.954-1.721,3.512c0.194,0.037,0.474,0.07,0.856,0.07H50.76
			c4.567,0,8.105,1.902,9.795,5.219c2.008,3.941,1.081,8.91-2.61,13.99c-5.235,7.206-15.405,12.639-23.657,12.639H27.93
			c-0.144,0.339-0.325,0.66-0.542,0.958l-3.3,4.65c-0.758,1.043-1.902,1.738-3.185,1.948c-0.075,0.029-0.155,0.049-0.238,0.058
			C20.476,74.555,20.287,74.566,20.097,74.566z"/>
	</g>
</g>
</svg>
